<?xml version="1.0" standalone="no"?>
<!DOCTYPE svg PUBLIC "-//W3C//DTD SVG 1.1//EN" "http://www.w3.org/Graphics/SVG/1.1/DTD/svg11.dtd" >
<svg xmlns="http://www.w3.org/2000/svg">
<metadata></metadata>
<defs>
<font id="league_spartanregular" horiz-adv-x="1398" >
<font-face units-per-em="2048" ascent="1536" descent="-512" />
<missing-glyph horiz-adv-x="559" />
<glyph horiz-adv-x="0" />
<glyph horiz-adv-x="682" />
<glyph unicode=" "  horiz-adv-x="559" />
<glyph unicode="&#x09;" horiz-adv-x="559" />
<glyph unicode="&#xa0;" horiz-adv-x="559" />
<glyph unicode="!" horiz-adv-x="714" d="M225 553l-49 1208h363l-50 -1208h-264zM356 438q98 0 167 -68.5t69 -166.5q0 -97 -69 -165.5t-167 -68.5q-97 0 -165 68.5t-68 165.5q0 98 68 166.5t165 68.5z" />
<glyph unicode="&#x22;" horiz-adv-x="1050" d="M297 1720q70 0 123 -46.5t53 -106.5v-8q0 -42 -31.5 -188.5t-63.5 -272.5l-32 -125h-137q-86 492 -86 586v8q0 60 52.5 106.5t121.5 46.5zM752 1720q70 0 123 -46.5t53 -106.5v-8q0 -42 -32 -188.5t-64 -272.5l-31 -125h-137q-86 492 -86 586v8q0 60 52.5 106.5 t121.5 46.5z" />
<glyph unicode="#" horiz-adv-x="1705" d="M602 449l-117 -449h-254l117 449h-209l66 247h209l78 299h-220l66 248h219l117 447h254l-117 -447h221l117 447h254l-117 -447h209l-65 -248h-209l-78 -299h219l-66 -247h-219l-116 -449h-254l116 449h-221zM889 696l78 299h-222l-77 -299h221z" />
<glyph unicode="$" horiz-adv-x="1376" d="M850 1972v-289q67 -9 132.5 -27t111.5 -38t82.5 -39t54.5 -31l18 -12l-149 -295q-7 5 -19 12t-49 26.5t-74.5 34t-90 26.5t-99.5 12q-95 0 -145 -38.5t-50 -107.5q0 -23 10 -43.5t35.5 -41t46.5 -35t68 -37t73.5 -33.5t87.5 -37q12 -5 19 -8q73 -31 137.5 -73.5 t121.5 -98t90.5 -127t33.5 -148.5q0 -116 -34 -207.5t-96.5 -151.5t-140.5 -97t-175 -54v-297h-221v283q-99 5 -193 29t-157.5 54.5t-113.5 60.5t-73 50l-24 21l186 311q9 -7 25 -19.5t63.5 -44.5t93.5 -56t107 -44t112 -20q234 0 234 160q0 30 -15 56.5t-36 46t-61.5 43 t-72.5 38.5t-89 41.5t-93 44.5q-148 74 -229.5 183.5t-81.5 236.5q0 122 59 226t152.5 169t206.5 90v295h221z" />
<glyph unicode="%" horiz-adv-x="2009" d="M47 1317q0 177 130.5 290t326.5 113q190 0 319 -113.5t129 -289.5q0 -175 -126 -289.5t-322 -114.5q-205 0 -331 113.5t-126 290.5zM1620 1690l-983 -1690h-242l983 1690h242zM311 1317q0 -83 53 -135t136 -52q79 0 131.5 52.5t52.5 134.5t-53.5 136t-130.5 54 q-79 0 -134 -54t-55 -136zM1057 373q0 177 125.5 290t330.5 113q196 0 322.5 -114t126.5 -289q0 -176 -129.5 -290t-319.5 -114q-195 0 -325.5 113.5t-130.5 290.5zM1321 373q0 -82 54.5 -136.5t133.5 -54.5q77 0 131 54.5t54 136.5t-53 134t-132 52q-83 0 -135.5 -51.5 t-52.5 -134.5z" />
<glyph unicode="&#x26;" horiz-adv-x="1705" d="M59 444q0 75 34.5 144.5t98.5 127.5t129 101.5t150 87.5q-82 103 -126 192.5t-44 182.5q0 201 141 320.5t398 119.5q122 0 220 -38.5t158 -102.5t91.5 -141t31.5 -158q0 -71 -34.5 -140t-83.5 -117t-97.5 -85.5t-83.5 -55.5l-34 -18l225 -233q8 4 25.5 14.5t81.5 64.5 t141 134l237 -234q-114 -131 -239 -231l364 -379h-485l-168 174q-47 -33 -64 -45t-61.5 -40.5t-69.5 -40t-70.5 -31t-83 -27t-89 -14.5t-105.5 -7q-81 0 -158 13t-156.5 47t-139 85.5t-97 136.5t-37.5 193zM840 1448q-74 0 -111 -47.5t-37 -120.5q0 -44 31 -95.5t61 -81.5 l31 -30q189 103 189 207q0 75 -38.5 121.5t-125.5 46.5zM940 430l-268 264q-7 -3 -19 -8t-42.5 -24.5t-53.5 -42t-42 -61.5t-19 -83q0 -68 57 -104.5t133 -36.5q62 0 125.5 24t96.5 48z" />
<glyph unicode="'" horiz-adv-x="595" d="M297 1720q70 0 123 -46.5t53 -106.5v-8q0 -42 -31.5 -188.5t-63.5 -272.5l-32 -125h-137q-86 492 -86 586v8q0 60 52.5 106.5t121.5 46.5z" />
<glyph unicode="(" horiz-adv-x="825" d="M707 -432l-236 -100q-7 9 -20 26t-50.5 76t-71 124t-75 167.5t-71 210.5t-50 249.5t-20.5 286.5q0 149 21.5 294.5t55.5 259.5t75 217.5t82.5 177t75.5 128t55 81.5l22 26l235 -100q-6 -7 -16.5 -21.5t-40.5 -65.5t-57 -109t-60.5 -153.5t-57.5 -199t-40.5 -244.5 t-16.5 -291q0 -141 14.5 -275t37.5 -234.5t51 -189.5t55.5 -150t50.5 -105.5t37 -65.5z" />
<glyph unicode=")" horiz-adv-x="825" d="M354 -532l-235 100q5 7 14.5 21t36.5 64t51.5 106.5t54.5 148.5t51.5 191t36.5 233.5t15 275.5q0 150 -16 290.5t-41.5 245.5t-56.5 197.5t-61.5 155t-56 108t-41.5 66.5l-16 21l236 100l22 -27.5t54 -79.5t76.5 -130t81.5 -175t77 -218.5t54 -258t22 -295.5 q0 -145 -20 -286t-51.5 -251t-69.5 -209t-76.5 -169t-70 -122t-51.5 -77z" />
<glyph unicode="*" horiz-adv-x="999" d="M823 1593l54 -163l-234 -84l135 -203l-135 -92l-143 186l-144 -186l-135 92l135 203l-233 84l53 163l234 -71l2 239h176l2 -239z" />
<glyph unicode="+" horiz-adv-x="1296" d="M805 324h-313v368h-369v314h369v368h313v-368h369v-314h-369v-368z" />
<glyph unicode="," horiz-adv-x="714" d="M356 438q98 0 167 -68.5t69 -166.5q0 -303 -344 -588l-105 86q5 5 13.5 14t31.5 38t42.5 60.5t39.5 79t29 95.5q-77 19 -126.5 77t-49.5 138q0 98 68 166.5t165 68.5z" />
<glyph unicode="-" horiz-adv-x="905" d="M123 750h659v-314h-659v314z" />
<glyph unicode="." horiz-adv-x="714" d="M356 438q98 0 167 -68.5t69 -166.5q0 -97 -69 -165.5t-167 -68.5q-97 0 -165 68.5t-68 165.5q0 98 68 166.5t165 68.5z" />
<glyph unicode="/" horiz-adv-x="1251" d="M1204 1761l-844 -2007h-313l844 2007h313z" />
<glyph unicode="0" horiz-adv-x="1488" d="M57 844q0 171 37 315.5t101 246.5t151.5 173.5t188 106t210.5 34.5t210.5 -34.5t187.5 -106t151.5 -173.5t101 -246.5t36.5 -315.5q0 -183 -37 -331t-100.5 -248t-151.5 -168t-187.5 -98t-210.5 -30t-210.5 30t-188 98t-152 168t-100.5 248t-37 331zM446 844 q0 -268 78 -402.5t221 -134.5q141 0 219 134.5t78 402.5q0 255 -79 396.5t-218 141.5q-140 0 -219.5 -142t-79.5 -396z" />
<glyph unicode="1" horiz-adv-x="845" d="M59 997v381l482 312h182v-1690h-385v1178z" />
<glyph unicode="2" horiz-adv-x="1542" d="M743 1395q-52 0 -101.5 -33t-84 -80.5t-62 -95t-40.5 -80.5l-13 -33l-321 156q3 10 10 28t33 69t57 97t84.5 103t113.5 97.5t145 68.5t179 28q120 0 218.5 -22t165.5 -58t117.5 -87t79 -103t46.5 -113.5t23.5 -110t5.5 -100.5q0 -81 -33 -168t-85.5 -161.5t-116 -146 t-127 -127t-116 -98t-85.5 -65.5l-33 -22h627v-338h-1317v96q18 15 49.5 41.5t122 107.5t172.5 159.5t182.5 184.5t172.5 197.5t121.5 184t49.5 155.5q0 26 -3 52.5t-17 68t-38 72t-71 53.5t-111 23z" />
<glyph unicode="3" horiz-adv-x="1361" d="M420 1202l-303 148q2 8 6 21t22.5 51.5t42.5 73.5t69.5 78t100.5 73.5t138 51.5t180 21q242 0 398.5 -138t156.5 -353q0 -201 -150 -318q102 -62 158.5 -159.5t56.5 -227.5q0 -242 -177 -398.5t-449 -156.5q-106 0 -198.5 23t-155.5 59.5t-114 81t-81 89t-50.5 81 t-28.5 59.5l-7 23l356 174q0 -5 1.5 -14.5t9 -36.5t18.5 -51t32.5 -54t49 -51.5t71 -36t95.5 -14.5q108 0 175.5 59t67.5 164q0 108 -70.5 178t-172.5 70q-18 0 -36.5 -3t-27.5 -6l-10 -3v252h84q79 0 141 61.5t62 151.5q0 80 -62.5 133t-146.5 53q-60 0 -107.5 -21.5 t-73.5 -52.5t-43 -61.5t-22 -51.5z" />
<glyph unicode="4" horiz-adv-x="1363" d="M1141 694h196v-338h-196v-356h-361v356h-831v115l811 1219h381v-996zM780 1176h-4l-301 -482h305v482z" />
<glyph unicode="5" horiz-adv-x="1312" d="M37 336l305 147q25 -85 99 -138.5t198 -53.5q105 0 173.5 69.5t68.5 176.5q0 65 -25 116.5t-66.5 84.5t-99 55.5t-118.5 31.5t-130 9q-168 0 -288 -54l141 910h862v-338h-532l-37 -236q7 0 23 1t24 1q102 -1 189 -17t170.5 -58t142 -107.5t94 -170.5t35.5 -241 q0 -242 -177.5 -398.5t-449.5 -156.5q-129 0 -236 32.5t-178 87.5t-117 116.5t-71 130.5z" />
<glyph unicode="6" horiz-adv-x="1411" d="M1188 1690l-498 -580q43 25 121 25q71 0 145 -23.5t144.5 -72.5t126 -117.5t89.5 -167t34 -211.5q0 -116 -36 -212.5t-96.5 -162.5t-142 -111.5t-170 -66.5t-182.5 -21q-187 0 -341.5 75.5t-243.5 207t-89 291.5q0 109 15 194t54 167.5t79 144.5t118 168l398 473h475z M449 543q0 -111 72 -183.5t184 -72.5t186 73t74 183q0 113 -75 187.5t-185 74.5q-107 0 -181.5 -74.5t-74.5 -187.5z" />
<glyph unicode="7" horiz-adv-x="1409" d="M1460 1690v-113l-893 -1577h-454l778 1352h-727v338h1296z" />
<glyph unicode="8" horiz-adv-x="1406" d="M1255 1294q0 -257 -217 -383q136 -63 216.5 -177t80.5 -279q0 -138 -91.5 -251t-235.5 -174t-303 -61q-164 0 -308.5 61t-234.5 174t-90 251q0 165 79.5 279.5t215.5 176.5q-224 128 -224 383q0 121 82 220t209.5 152.5t267.5 53.5q145 0 271 -53.5t204 -152.5t78 -220z M891 1239q0 83 -52 137t-134 54t-136.5 -54.5t-54.5 -136.5q0 -83 55.5 -135.5t135.5 -52.5q82 0 134 52t52 136zM489 516q0 -94 59 -154.5t154 -60.5q93 0 154.5 61t61.5 154q0 94 -62.5 154.5t-153.5 60.5q-92 0 -152.5 -60.5t-60.5 -154.5z" />
<glyph unicode="9" horiz-adv-x="1411" d="M223 0l498 580q-43 -25 -121 -25q-71 0 -145 23.5t-144.5 72.5t-126 117.5t-89.5 167t-34 211.5q0 116 36 212.5t96.5 162t142 111t170 66.5t182.5 21q187 0 341.5 -75t243.5 -207t89 -291q0 -109 -15 -194t-54 -167.5t-79 -144.5t-118 -168l-398 -473h-475zM963 1147 q0 111 -72 183.5t-184 72.5t-186.5 -73t-74.5 -183q0 -113 75.5 -187.5t185.5 -74.5q107 0 181.5 74.5t74.5 187.5z" />
<glyph unicode=":" horiz-adv-x="714" d="M356 1135q98 0 167 -69t69 -167q0 -97 -69 -165t-167 -68q-97 0 -165 68t-68 165q0 98 68 167t165 69zM356 438q98 0 167 -68.5t69 -166.5q0 -97 -69 -165.5t-167 -68.5q-97 0 -165 68.5t-68 165.5q0 98 68 166.5t165 68.5z" />
<glyph unicode=";" horiz-adv-x="714" d="M356 1135q98 0 167 -69t69 -167q0 -97 -69 -165t-167 -68q-97 0 -165 68t-68 165q0 98 68 167t165 69zM356 438q-97 0 -165 -68.5t-68 -166.5q0 -80 49.5 -138t126.5 -77q-15 -76 -54 -147.5t-71 -105.5l-31 -34l105 -86q344 285 344 588q0 98 -69 166.5t-167 68.5z" />
<glyph unicode="&#x3c;" horiz-adv-x="1355" d="M123 973l1120 454v-290l-733 -287l733 -283v-291l-1120 455v242z" />
<glyph unicode="=" horiz-adv-x="1296" d="M123 1251h1051v-313h-1051v313zM123 760h1051v-314h-1051v314z" />
<glyph unicode="&#x3e;" horiz-adv-x="1355" d="M113 567l733 283l-733 287v290l1120 -454v-242l-1120 -455v291z" />
<glyph unicode="?" horiz-adv-x="1220" d="M348 1188l-301 145q0 5 6 25t22.5 56t41.5 75.5t69 81t98 74.5t134.5 54t173.5 21q154 0 286.5 -61t214 -174.5t81.5 -253.5q0 -260 -347 -408q-47 -21 -59 -56t-12 -99v-115h-338v223q0 83 17 133t79 90q30 19 72.5 40t68 35t51.5 35t38 50.5t12 71.5q0 73 -48 120.5 t-118 47.5q-52 0 -96 -20t-72.5 -53t-46.5 -67.5t-27 -70.5zM586 438q98 0 166.5 -68.5t68.5 -166.5q0 -97 -68.5 -165.5t-166.5 -68.5q-97 0 -165.5 68.5t-68.5 165.5q0 98 68.5 166.5t165.5 68.5z" />
<glyph unicode="@" horiz-adv-x="1886" d="M1470 705q68 0 97.5 44.5t29.5 155.5q0 158 -82.5 283.5t-225.5 194.5t-320 69q-171 0 -314.5 -81.5t-226 -220.5t-82.5 -304q0 -164 84 -299t227 -211t312 -76q76 0 143 14.5t109 35t73 40.5t44 34l14 15l237 -157q-4 -6 -11 -15.5t-34.5 -38t-59.5 -54.5t-85.5 -57.5 t-113 -54t-143 -38t-173.5 -15.5q-186 0 -354.5 64.5t-294 178t-199.5 279t-74 355.5t74 355t199.5 278t294 177t354.5 64q119 0 231 -27t208 -76.5t176.5 -123t137 -162.5t88 -198t31.5 -228q0 -93 -24 -169t-64.5 -127t-94.5 -86t-112.5 -50.5t-120.5 -15.5 q-82 0 -157 25.5t-127 68.5l-19 -27q-45 -50 -112 -80t-146 -30q-167 0 -277 118.5t-110 292.5q0 175 110 295.5t277 120.5q157 0 258 -98v76h244v-428q0 -3 1 -9t7.5 -21t16.5 -26t31 -20.5t48 -9.5zM795 829q0 -71 46.5 -117t119.5 -46q69 0 115 46.5t46 116.5 q0 71 -47 119.5t-114 48.5q-69 0 -117.5 -48.5t-48.5 -119.5z" />
<glyph unicode="A" horiz-adv-x="1605" d="M981 1690l682 -1690h-414l-125 338h-643l-125 -338h-413l682 1690h356zM993 676l-188 491h-4l-189 -491h381z" />
<glyph unicode="B" horiz-adv-x="1363" d="M123 1690h524q90 0 166 -13.5t142.5 -45.5t112.5 -80.5t72.5 -122.5t26.5 -168q0 -120 -53 -214.5t-158 -148.5q361 -63 361 -426q0 -213 -147 -342t-406 -129h-641v1690zM508 1028h31q129 0 192.5 45t63.5 148q0 89 -64 130.5t-192 41.5h-31v-365zM508 297h121 q140 0 211 45t71 143q0 113 -70 162t-212 49h-121v-399z" />
<glyph unicode="C" horiz-adv-x="1542" d="M1022 348q55 0 109.5 11t93 26t69 30.5t45.5 26.5l15 11l164 -328q-8 -6 -22.5 -16.5t-67 -37.5t-111.5 -47.5t-155 -37.5t-199 -17q-141 0 -278 44t-251 125t-201.5 187.5t-136.5 240.5t-49 276t49 277t136 242.5t201 189t251 125.5t279 44q103 0 198 -16t157 -39 t109.5 -45.5t68.5 -38.5l22 -16l-164 -328q-6 4 -16 11t-44 25t-70 32t-91.5 25t-110.5 11q-112 0 -206 -30t-157.5 -79.5t-108 -114t-65 -133.5t-20.5 -138q0 -70 20.5 -139t65 -134t108 -115t157.5 -80t206 -30z" />
<glyph unicode="D" horiz-adv-x="1511" d="M123 1690h489q172 0 328 -63.5t271.5 -173.5t184 -268.5t68.5 -338.5q0 -181 -68 -340t-183.5 -269t-271.5 -173.5t-329 -63.5h-489v1690zM508 344h59q211 0 345.5 142.5t136.5 357.5q0 141 -60 255t-170.5 180.5t-251.5 66.5h-59v-1002z" />
<glyph unicode="E" horiz-adv-x="1187" d="M1090 1690v-338h-582v-336h557v-338h-557v-340h582v-338h-967v1690h967z" />
<glyph unicode="F" horiz-adv-x="1161" d="M1100 1690v-338h-592v-336h547v-338h-547v-678h-385v1690h977z" />
<glyph unicode="G" horiz-adv-x="1697" d="M1651 946v-366q-27 -125 -85 -227.5t-134 -173t-170 -118.5t-192 -70t-200 -22q-168 0 -320 69.5t-262.5 186.5t-175.5 279t-65 340q0 180 62.5 341.5t170.5 279t261.5 186.5t328.5 69q414 0 652 -288l-252 -277q-135 217 -377 217q-117 0 -216 -70.5t-156.5 -192 t-57.5 -265.5q0 -215 126 -367.5t304 -152.5q94 0 176.5 37t136.5 113t54 175h-390v297h781z" />
<glyph unicode="H" horiz-adv-x="1560" d="M508 678v-678h-385v1690h385v-674h545v674h385v-1690h-385v678h-545z" />
<glyph unicode="I" horiz-adv-x="630" d="M508 1690v-1690h-385v1690h385z" />
<glyph unicode="J" horiz-adv-x="960" d="M858 1690v-1213q0 -248 -135.5 -378t-390.5 -130q-68 0 -133.5 16.5t-110.5 40.5t-81 48t-53 40l-17 17l122 322q5 -5 14 -12.5t35 -27.5t51.5 -35t59 -27.5t60.5 -12.5q89 0 141.5 58t52.5 179v1115h385z" />
<glyph unicode="K" horiz-adv-x="1611" d="M1661 0h-531l-622 717v-717h-385v1690h385v-691l579 691h467l-680 -801z" />
<glyph unicode="L" horiz-adv-x="1157" d="M508 1690v-1352h582v-338h-967v1690h385z" />
<glyph unicode="M" horiz-adv-x="1937" d="M1520 0l-80 1001h-10l-347 -991h-229l-346 991h-10l-80 -1001h-385l151 1690h410l375 -975l374 975h410l152 -1690h-385z" />
<glyph unicode="N" horiz-adv-x="1691" d="M508 1049v-1049h-385v1690h385l672 -1049h4v1049h385v-1690h-385l-672 1049h-4z" />
<glyph unicode="O" horiz-adv-x="1796" d="M47 846q0 182 68 344.5t183 278.5t272 183.5t329 67.5q173 0 330 -67.5t271 -183.5t181.5 -278.5t67.5 -344.5q0 -183 -65 -345t-177.5 -279t-270.5 -185t-337 -68q-184 0 -343.5 68t-270.5 185t-174.5 279t-63.5 345zM463 846q0 -78 15 -149.5t48.5 -136.5t83 -113 t123.5 -76.5t166 -28.5q111 0 196.5 42.5t136 115.5t76 160.5t25.5 185.5q0 77 -16 149t-51 137t-85 113t-122.5 76.5t-159.5 28.5q-107 0 -192.5 -43t-137.5 -115t-79 -160.5t-27 -185.5z" />
<glyph unicode="P" horiz-adv-x="1363" d="M123 1690h616q125 0 229.5 -32.5t183 -96t122 -164t43.5 -228.5q0 -170 -76 -294t-205.5 -186t-296.5 -62h-231v-627h-385v1690zM508 934h108q61 0 111 11t93 35.5t67 69.5t24 107q0 51 -16.5 90.5t-43.5 64.5t-65.5 41t-80 22.5t-89.5 6.5h-108v-448z" />
<glyph unicode="Q" horiz-adv-x="1775" d="M535 -354l-93 139q6 8 16.5 21t43 46t63.5 58t72.5 46t75.5 21v9q-198 39 -349.5 160t-234 303t-82.5 397q0 182 66.5 344.5t179.5 278.5t268.5 183.5t327.5 67.5q173 0 328.5 -67.5t268 -183.5t178 -278.5t65.5 -344.5q0 -301 -162 -530.5t-426 -309.5v-8 q12 0 108 -19.5t154 -19.5q49 0 93 11.5t72 27.5t49 32.5t31 27.5l9 12l121 -260q-4 -9 -13 -24.5t-42.5 -55.5t-73 -70t-106.5 -55t-142 -25q-69 0 -134.5 16.5t-118 40t-106 47t-120 40t-138.5 16.5q-45 0 -87 -9.5t-70 -23.5t-50 -28t-32 -23zM463 846q0 -78 14 -147.5 t46 -133t80 -108.5t121 -72t165 -27q111 0 195 40t132.5 110t72.5 155t24 183t-25 183t-74.5 154.5t-133 109.5t-191.5 40q-87 0 -158.5 -26.5t-120.5 -72t-82.5 -108t-49 -133t-15.5 -147.5z" />
<glyph unicode="R" horiz-adv-x="1466" d="M123 1690h604q118 0 218 -32t174.5 -94t116.5 -158t42 -218q0 -186 -93 -312.5t-253 -177.5l581 -698h-489l-516 668v-668h-385v1690zM508 940h45q54 0 90 2.5t83.5 15t76 34.5t49 65t20.5 104t-20.5 104t-49 65t-76 34.5t-83.5 15t-90 2.5h-45v-442z" />
<glyph unicode="S" horiz-adv-x="1376" d="M745 1720q86 0 171.5 -16.5t146.5 -40t109.5 -46.5t73.5 -39l24 -17l-156 -308q-7 5 -19.5 13t-50.5 28t-76.5 35.5t-92.5 28t-103 12.5q-97 0 -149 -40.5t-52 -110.5q0 -17 6.5 -33.5t22.5 -33t31 -30t45 -30.5t51 -28.5t61.5 -29.5t64 -28.5t71.5 -30.5 q75 -32 142 -75.5t125.5 -101t93 -131.5t34.5 -153q0 -117 -35 -211t-94 -155.5t-141.5 -102.5t-173 -58.5t-193.5 -17.5q-111 0 -217 23t-178.5 56t-129 66t-83.5 56l-27 23l193 323q9 -8 25.5 -20.5t65.5 -45.5t96 -58t110 -45.5t116 -20.5q33 0 58.5 2t63 11.5t62 26 t42.5 49t18 77.5q0 30 -15.5 57t-37 47t-64 44.5t-75.5 40t-92.5 43.5t-96.5 46q-153 75 -237 188.5t-84 245.5q0 151 81.5 271.5t206 182.5t262.5 62z" />
<glyph unicode="T" horiz-adv-x="1220" d="M16 1352v338h1188v-338h-401v-1352h-385v1352h-402z" />
<glyph unicode="U" horiz-adv-x="1523" d="M1421 1690v-1090q0 -312 -167.5 -471.5t-491.5 -159.5t-492 159.5t-168 471.5v1090h385v-977q0 -140 30.5 -220.5t88.5 -112.5t156 -32t156 32t88 112.5t30 220.5v977h385z" />
<glyph unicode="V" horiz-adv-x="1605" d="M651 0l-708 1690h434l426 -1110l426 1110h434l-709 -1690h-303z" />
<glyph unicode="W" horiz-adv-x="2295" d="M1419 0l-270 948l-270 -948h-428l-482 1690h428l289 -1160h10l308 1160h290l308 -1160h10l289 1160h426l-482 -1690h-426z" />
<glyph unicode="X" horiz-adv-x="1634" d="M1704 0h-498l-399 575l-399 -575h-478l639 909l-532 781h459l311 -461l311 461h479l-553 -781z" />
<glyph unicode="Y" horiz-adv-x="1507" d="M-61 1690h462l353 -541l352 541h463l-623 -932v-758h-385v758z" />
<glyph unicode="Z" horiz-adv-x="1574" d="M1542 1690l-837 -1352h782v-338h-1454l835 1352h-716v338h1390z" />
<glyph unicode="[" horiz-adv-x="905" d="M123 1761h659v-239h-346v-1815h346v-239h-659v2293z" />
<glyph unicode="\" horiz-adv-x="1251" d="M891 0l-844 1761h313l844 -1761h-313z" />
<glyph unicode="]" horiz-adv-x="905" d="M123 -293h346v1815h-346v239h659v-2293h-659v239z" />
<glyph unicode="^" horiz-adv-x="1015" d="M696 1239l-188 223l-189 -223h-329l424 481h188l424 -481h-330z" />
<glyph unicode="_" horiz-adv-x="1050" d="M0 -31h1051v-174h-1051v174z" />
<glyph unicode="`" horiz-adv-x="794" d="M283 1720l415 -360l-114 -158l-488 283z" />
<glyph unicode="a" d="M47 524q0 114 39 216.5t106.5 177.5t165.5 119t211 44q210 0 344 -131v101h363v-1051h-358v119h-5q-61 -68 -151 -109t-193 -41q-113 0 -211 43.5t-165.5 118.5t-106.5 177t-39 216zM432 524q0 -108 68 -176.5t178 -68.5q106 0 175 69t69 176t-70.5 177.5t-173.5 70.5 q-104 0 -175 -70t-71 -178z" />
<glyph unicode="b" d="M1352 524q0 -153 -66 -279.5t-186.5 -201t-270.5 -74.5q-103 0 -193 41t-151 109h-4v-119h-358v1761h362v-811q134 131 344 131q150 0 270.5 -75t186.5 -202t66 -280zM967 524q0 108 -71 178t-175 70q-103 0 -173.5 -70.5t-70.5 -177.5t69 -176t175 -69q110 0 178 68.5 t68 176.5z" />
<glyph unicode="c" horiz-adv-x="1005" d="M682 784q-103 0 -176.5 -75.5t-73.5 -182.5q0 -108 73.5 -184t176.5 -76q48 0 92 12t64 24l20 13l123 -252q-5 -4 -14.5 -10t-42.5 -22.5t-70.5 -29t-98.5 -22.5t-126 -10q-150 0 -284 73.5t-216 201.5t-82 278q0 151 81.5 280.5t215.5 204t285 74.5q65 0 125.5 -10 t100 -24.5t69.5 -29t44 -24.5l13 -10l-123 -248q-8 5 -22 13.5t-60 22t-94 13.5z" />
<glyph unicode="d" d="M47 524q0 114 39 216.5t106.5 177.5t165.5 119t211 44q210 0 344 -131v811h363v-1761h-358v119h-5q-61 -68 -151 -109t-193 -41q-113 0 -211 43.5t-165.5 118.5t-106.5 177t-39 216zM432 524q0 -108 68 -176.5t178 -68.5q106 0 175 69t69 176t-70.5 177.5t-173.5 70.5 q-104 0 -175 -70t-71 -178z" />
<glyph unicode="e" horiz-adv-x="1234" d="M1186 475h-762q0 -58 22 -102t57.5 -68t73 -35.5t74.5 -11.5q88 0 139 23.5t117 93.5l262 -131q-164 -275 -544 -275q-156 0 -289 74.5t-211 202.5t-78 278q0 151 78 279.5t211 203t289 74.5q121 0 223 -35.5t178 -104t119 -175.5t43 -242q0 -37 -2 -49zM434 676h400 q-12 82 -65 126t-134 44q-91 0 -143.5 -47.5t-57.5 -122.5z" />
<glyph unicode="f" horiz-adv-x="768" d="M184 1051v223q2 235 110.5 376.5t301.5 141.5q82 0 156.5 -23.5t108.5 -46.5l34 -24l-127 -256q-50 28 -109 28q-66 0 -89 -46t-23 -160v-213h241v-277h-241v-774h-363v774h-151v277h151z" />
<glyph unicode="g" d="M76 -258l297 145q35 -56 105.5 -95.5t178.5 -39.5q32 0 65 7.5t68 26t62 45.5t44 70.5t17 96.5v78q-55 -60 -140 -83.5t-204 -23.5q-113 0 -211 43.5t-165.5 118.5t-106.5 177t-39 216t39 216.5t106.5 177.5t165.5 119t211 44q204 0 338 -125h6v95h363v-1080 q0 -172 -81 -294t-218.5 -181t-319.5 -59q-449 0 -581 305zM432 524q0 -108 68 -176.5t178 -68.5q106 0 175 69t69 176t-70.5 177.5t-173.5 70.5q-104 0 -175 -70t-71 -178z" />
<glyph unicode="h" horiz-adv-x="1353" d="M123 0v1761h362v-821h4q141 141 302 141q61 0 122 -12t123 -41t109 -72t76.5 -111.5t29.5 -152.5v-692h-362v594q0 82 -52.5 143.5t-136.5 61.5q-82 0 -148.5 -63.5t-66.5 -141.5v-594h-362z" />
<glyph unicode="i" horiz-adv-x="618" d="M309 1700q89 0 152 -63t63 -152t-63 -152t-152 -63t-152 63t-63 152t63 152t152 63zM123 1051v-1051h362v1051h-362z" />
<glyph unicode="j" horiz-adv-x="608" d="M309 1700q89 0 152 -63t63 -152t-63 -152t-152 -63t-152 63t-63 152t63 152t152 63zM123 1051v-1143q0 -72 -26.5 -108t-73.5 -36q-20 0 -43 8t-36 16l-14 7l-112 -293q2 -1 26 -12.5t34 -15t38 -13t51 -13.5t60.5 -7.5t78.5 -3.5q84 0 150.5 24t108.5 63t69.5 92.5 t39 108t11.5 113.5v1213h-362z" />
<glyph unicode="k" horiz-adv-x="1323" d="M1323 1051l-500 -502l549 -549h-467l-420 420v-420h-362v1761h362v-1077l367 367h471z" />
<glyph unicode="l" horiz-adv-x="608" d="M123 0v1761h362v-1761h-362z" />
<glyph unicode="m" horiz-adv-x="2017" d="M123 0v1051h362v-111h4q141 141 302 141q115 0 214.5 -46.5t151.5 -145.5q160 192 348 192q61 0 117 -12t110.5 -41t94 -72.5t64 -111t24.5 -152.5v-692h-363v594q0 85 -46.5 141t-137.5 56q-80 0 -122.5 -48.5t-45.5 -115.5v-627h-362v594q0 84 -47 140.5t-138 56.5 q-84 0 -126 -53t-42 -124v-614h-362z" />
<glyph unicode="n" horiz-adv-x="1353" d="M123 0v1051h362v-111h4q141 141 302 141q61 0 122 -12t123 -41t109 -72t76.5 -111.5t29.5 -152.5v-692h-362v594q0 82 -52.5 143.5t-136.5 61.5q-82 0 -148.5 -63.5t-66.5 -141.5v-594h-362z" />
<glyph unicode="o" horiz-adv-x="1353" d="M47 524q0 121 49.5 225t134 176.5t201.5 114t248 41.5q173 0 316 -70t227 -198.5t84 -288.5q0 -242 -177.5 -398.5t-449.5 -156.5q-283 0 -458 155.5t-175 399.5zM432 524q0 -108 68 -176.5t178 -68.5q106 0 175 69t69 176t-70.5 177.5t-173.5 70.5q-104 0 -175 -70 t-71 -178z" />
<glyph unicode="p" d="M1352 526q0 -153 -66 -280t-186.5 -202t-270.5 -75q-210 0 -344 131v-632h-362v1583h358v-119h4q61 68 151 108.5t193 40.5q150 0 270.5 -74.5t186.5 -201t66 -279.5zM967 526q0 108 -68 177t-178 69q-106 0 -175 -69.5t-69 -176.5t70.5 -177t173.5 -70q104 0 175 70 t71 177z" />
<glyph unicode="q" d="M47 526q0 114 39 216t106.5 177t165.5 118.5t211 43.5q103 0 193 -40.5t151 -108.5h5v119h358v-1583h-363v632q-134 -131 -344 -131q-113 0 -211 44t-165.5 119t-106.5 177.5t-39 216.5zM432 526q0 -107 71 -177t175 -70q103 0 173.5 70t70.5 177t-69 176.5t-175 69.5 q-110 0 -178 -69t-68 -177z" />
<glyph unicode="r" horiz-adv-x="1019" d="M123 0v1051h362v-152h4q5 7 14 19.5t40 44t65.5 55.5t89.5 43.5t113 19.5q60 0 117 -16.5t84 -32.5l28 -16l-151 -307q-8 6 -22.5 15.5t-63.5 25.5t-103 16q-53 0 -94 -20t-63 -47t-36 -59.5t-18 -53.5t-4 -33v-553h-362z" />
<glyph unicode="s" horiz-adv-x="1007" d="M580 1081q90 0 178 -20.5t131 -40.5l43 -21l-119 -237q-14 7 -37 18t-85 29t-111 18q-62 0 -87.5 -13.5t-25.5 -49.5q0 -9 2.5 -17t8.5 -14.5t11.5 -12t16.5 -11.5t19 -9.5t23.5 -9t25 -8.5l28.5 -9t29 -9q49 -15 87.5 -30.5t84 -44t76 -62.5t51 -85.5t20.5 -113.5 q0 -359 -497 -359q-71 0 -139 14.5t-114.5 35.5t-82.5 42t-53 35l-17 15l148 247q6 -5 16 -13t41 -28.5t61 -36.5t69.5 -29t72.5 -13q32 0 53 3.5t40 21t19 50.5q0 34 -28 54t-97.5 45.5t-107.5 44.5q-46 24 -79 46.5t-66 56.5t-50.5 80t-17.5 103q0 159 124.5 248.5 t334.5 89.5z" />
<glyph unicode="t" horiz-adv-x="808" d="M184 1051v391h363v-391h221v-277h-221v-334q0 -145 82 -145q21 0 43.5 8.5t34.5 16.5l12 8l90 -293q-13 -7 -36.5 -18t-93 -29.5t-136.5 -18.5q-83 0 -148 24.5t-104 63t-63.5 93t-34 108t-9.5 113.5v403h-151v277h151z" />
<glyph unicode="u" horiz-adv-x="1343" d="M465 1051v-500q0 -156 47 -221.5t160 -65.5t160 65.5t47 221.5v500h362v-588q0 -262 -136 -378t-433 -116t-433.5 116t-136.5 378v588h363z" />
<glyph unicode="v" horiz-adv-x="1290" d="M389 1051l256 -572l256 572h430l-563 -1051h-246l-563 1051h430z" />
<glyph unicode="w" horiz-adv-x="2019" d="M768 0h-246l-563 1051h418l256 -568l252 568h250l251 -568l256 568h418l-563 -1051h-246l-241 543z" />
<glyph unicode="x" horiz-adv-x="1339" d="M1339 0h-438l-231 297l-232 -297h-438l449 549l-386 502h424l183 -244l182 244h424l-385 -502z" />
<glyph unicode="y" horiz-adv-x="1296" d="M920 1051h417l-825 -1583h-418l363 696l-498 887h418l293 -539z" />
<glyph unicode="z" horiz-adv-x="1148" d="M1139 1051l-521 -775h480v-276h-1088l520 774h-434v277h1043z" />
<glyph unicode="{" horiz-adv-x="913" d="M123 518v193q143 0 143 133v547q0 55 8.5 104t31 99t58 86t94 58.5t134.5 22.5h199v-262h-82q-55 0 -92 -39t-37 -100v-526q0 -154 -125 -220q125 -66 125 -219v-526q0 -61 37 -100t92 -39h82v-262h-199q-76 0 -134.5 22.5t-94 58.5t-58 86t-31 99t-8.5 104v547 q0 133 -143 133z" />
<glyph unicode="|" horiz-adv-x="559" d="M123 0v1761h313v-1761h-313z" />
<glyph unicode="}" horiz-adv-x="913" d="M791 711v-193q-144 0 -144 -133v-547q0 -70 -14.5 -130.5t-49 -117t-101 -89.5t-160.5 -33h-199v262h82q55 0 92 39t37 100v526q0 153 125 219q-125 66 -125 220v526q0 61 -37 100t-92 39h-82v262h199q94 0 160.5 -33t101 -89.5t49 -117t14.5 -130.5v-547 q0 -133 144 -133z" />
<glyph unicode="~" horiz-adv-x="1421" d="M1108 1067l190 -166l-8 -16t-23.5 -39t-39 -55.5t-53 -59t-66.5 -55.5t-79.5 -39t-92.5 -16q-61 0 -119.5 17.5t-93.5 36.5t-88 54q-98 66 -150 66q-33 0 -63 -16.5t-49 -40t-33.5 -47t-20.5 -39.5l-6 -17l-190 166l8 16t23.5 39t39 55.5t53 59t66.5 55.5t79.5 39 t92.5 16q49 0 91 -8t85 -28.5t63 -32.5t67 -41q95 -64 145 -64q33 0 63 16.5t49 40t33.5 47t20.5 39.5z" />
<glyph unicode="&#xa1;" horiz-adv-x="714" d="M356 791q-97 0 -165 68.5t-68 166.5q0 97 68 165.5t165 68.5q98 0 167 -68.5t69 -165.5q0 -98 -69 -166.5t-167 -68.5zM176 -532l49 1208h264l50 -1208h-363z" />
<glyph unicode="&#xa2;" horiz-adv-x="1005" d="M508 -264v248q-194 41 -327.5 192t-133.5 346q0 181 113 326.5t286 202.5v252h222v-224q58 -3 111.5 -14t88.5 -24.5t62 -26.5t39 -22l12 -9l-123 -248q-8 5 -22 13.5t-60 22t-94 13.5q-103 0 -176.5 -75.5t-73.5 -182.5q0 -108 73.5 -184t176.5 -76q48 0 92 12t64 24 l20 13l123 -252q-10 -7 -29 -18.5t-84.5 -35.5t-138.5 -34v-239h-221z" />
<glyph unicode="&#xa3;" horiz-adv-x="1533" d="M113 793h209q-107 169 -107 350q0 121 37.5 225.5t108 183.5t181.5 124.5t249 45.5q77 0 145.5 -13.5t119 -36t94 -51.5t73 -61t53 -64.5t37.5 -61.5t23 -51.5t12 -36.5l4 -13l-324 -157q-2 10 -5.5 25.5t-21 56t-41 71.5t-68.5 56.5t-101 25.5q-93 0 -144 -74t-51 -194 q0 -48 4.5 -88.5t18 -81t20.5 -59.5t29 -65t26 -56h355v-201h-281q6 -44 6 -94q0 -43 -14 -84.5t-28 -61.5l-15 -20q10 0 59.5 -17t122 -34t139.5 -17q33 0 59 15t40 37t23.5 44t12.5 37l3 15l280 -140q-1 -6 -3.5 -17t-13.5 -42.5t-27 -60t-46 -63.5t-67 -60.5t-94 -42.5 t-124 -17q-85 0 -179 18.5t-162.5 41t-150 41t-145.5 18.5q-37 0 -61 -22t-29 -44l-6 -22h-235q0 44 21.5 104.5t58.5 119.5t95.5 100t123.5 41q32 46 32 118q0 49 -24 109h-307v201z" />
<glyph unicode="&#xa5;" horiz-adv-x="1564" d="M154 225v273h436v123h-436v272h346l-533 797h463l352 -541l353 541h462l-532 -797h344v-272h-434v-123h434v-273h-434v-225h-385v225h-436z" />
<glyph unicode="&#xa6;" horiz-adv-x="559" d="M123 1081v680h313v-680h-313zM123 0v680h313v-680h-313z" />
<glyph unicode="&#xa7;" horiz-adv-x="1310" d="M590 -563q-97 0 -179.5 21.5t-137 56t-97 76t-66 83.5t-39 76.5t-19.5 55.5l-5 22l328 70q2 -6 6 -17t21.5 -38t39.5 -48t61.5 -38t86.5 -17q87 0 127.5 32t40.5 81q0 21 -9 39.5t-32.5 38.5t-44 34.5t-64.5 37t-71 35.5t-86 40q-98 46 -168.5 93.5t-125.5 106 t-82.5 130.5t-27.5 157q6 117 77.5 215t197.5 154q-95 68 -139 151.5t-44 206.5q0 85 31.5 160.5t94 136t166 96t237.5 35.5q70 0 131.5 -12.5t106.5 -33.5t83.5 -48.5t64 -58t45.5 -61t31.5 -58t18.5 -48.5t9 -34l3 -12l-327 -70q0 5 -2 14t-12 32t-26 40.5t-49 32 t-77 14.5q-62 0 -95.5 -31.5t-33.5 -80.5q0 -20 9.5 -39t33 -38.5t45 -35t65 -37.5t72.5 -36t86 -40q200 -94 301.5 -207.5t101.5 -279.5q-6 -117 -77 -215t-197 -154q94 -70 138 -153.5t44 -204.5q0 -57 -15.5 -112.5t-56 -114t-103 -102t-164.5 -71.5t-232 -28zM612 774 l-49 23q-173 -50 -180 -172q2 -29 20 -57t41.5 -49t63.5 -45t69.5 -39t75.5 -36q5 -2 17 -7.5t18 -8.5l47 -23q175 46 183 172q-2 29 -20 57t-41.5 49t-64 45t-69.5 38.5t-76 36.5q-5 2 -17 7.5t-18 8.5z" />
<glyph unicode="&#xa8;" horiz-adv-x="1148" d="M332 1620q78 0 133 -55t55 -133t-55 -133.5t-133 -55.5t-133.5 55.5t-55.5 133.5t55.5 133t133.5 55zM817 1620q78 0 133.5 -55t55.5 -133t-55.5 -133.5t-133.5 -55.5t-133 55.5t-55 133.5t55 133t133 55z" />
<glyph unicode="&#xa9;" horiz-adv-x="1845" d="M47 844q0 178 69.5 340t187 279.5t279.5 187t339 69.5q178 0 340 -69.5t279.5 -187t187 -279.5t69.5 -340q0 -177 -69.5 -339t-187 -279.5t-279.5 -187t-340 -69.5q-177 0 -339 69.5t-279.5 187t-187 279.5t-69.5 339zM281 844q0 -130 51 -248.5t137 -204.5t204.5 -137 t248.5 -51q174 0 322 86t234.5 234t86.5 321q0 174 -86.5 322t-234.5 234.5t-322 86.5q-173 0 -321 -86.5t-234 -234.5t-86 -322zM1004 1057q30 0 64.5 -8.5t53.5 -16.5l19 -8l88 182q-8 8 -32.5 22t-91 32t-144.5 18q-114 0 -217 -57t-166.5 -157.5t-63.5 -217.5 q0 -115 63.5 -213.5t166 -154.5t217.5 -56q70 0 137 17t99 33l32 17q-16 33 -45.5 92.5t-44.5 92.5q-55 -33 -135 -33q-84 0 -142.5 60t-58.5 149q0 86 59 146.5t142 60.5z" />
<glyph unicode="&#xaa;" horiz-adv-x="1048" d="M143 1374q0 145 92 245.5t232 100.5q127 0 215 -82v62h223v-649h-221v73h-2q-85 -92 -215 -92q-140 0 -232 99.5t-92 242.5zM383 1374q0 -66 42.5 -108.5t109.5 -42.5q66 0 108.5 42.5t42.5 108.5q0 67 -43.5 110.5t-107.5 43.5t-108 -43.5t-44 -110.5z" />
<glyph unicode="&#xab;" horiz-adv-x="1280" d="M467 57l-399 512l399 512l190 -149l-282 -363l282 -362zM979 57l-399 512l399 512l190 -149l-282 -363l282 -362z" />
<glyph unicode="&#xad;" horiz-adv-x="905" d="M123 750h659v-314h-659v314z" />
<glyph unicode="&#xae;" horiz-adv-x="1011" d="M47 1260q0 190 134.5 325t322.5 135q126 0 232 -61.5t167.5 -167.5t61.5 -231q0 -189 -134.5 -323t-326.5 -134q-92 0 -176.5 36.5t-146 97.5t-98 145.5t-36.5 177.5zM170 1260q0 -138 98.5 -236t235.5 -98q141 0 239.5 98t98.5 236q0 140 -98.5 238.5t-239.5 98.5 q-137 0 -235.5 -99t-98.5 -238zM365 1475h149q62 0 100.5 -32.5t38.5 -92.5q0 -93 -86 -123l150 -176h-127l-129 168v-168h-96v424zM461 1286h12q22 0 36 2.5t27 15.5t13 37q0 35 -21 46.5t-55 11.5h-12v-113z" />
<glyph unicode="&#xaf;" horiz-adv-x="1122" d="M143 1544h836v-246h-836v246z" />
<glyph unicode="&#xb0;" horiz-adv-x="761" d="M143 1581q0 93 68.5 152t169.5 59t169 -59t68 -152q0 -92 -66.5 -151.5t-170.5 -59.5q-105 0 -171.5 59t-66.5 152zM293 1581q0 -39 24.5 -66.5t63.5 -27.5q38 0 64 27.5t26 66.5q0 40 -26 66t-64 26q-37 0 -62.5 -26.5t-25.5 -65.5z" />
<glyph unicode="&#xb1;" horiz-adv-x="1296" d="M805 426h-313v317h-369v314h369v317h313v-317h369v-314h-369v-317zM123 313h1051v-313h-1051v313z" />
<glyph unicode="&#xb2;" horiz-adv-x="546" d="M311 1593q-32 0 -61 -31.5t-42 -62.5l-13 -31l-125 62q3 8 8 20.5t25.5 45.5t45.5 58t68.5 45.5t93.5 20.5q65 0 113.5 -16.5t75 -40t42.5 -57t20.5 -60.5t4.5 -57q0 -43 -24 -90.5t-57.5 -84.5t-67.5 -68t-58 -48l-24 -16h244v-131h-514v36q14 11 37 31t81.5 75 t103.5 103.5t81.5 103.5t36.5 89q0 14 -3 27.5t-11.5 33t-29 31.5t-51.5 12z" />
<glyph unicode="&#xb3;" horiz-adv-x="518" d="M166 1524l-115 55q1 6 4.5 15.5t19 33.5t36.5 43t62 34t91 15q93 0 152 -52.5t59 -135.5q0 -76 -57 -121q82 -50 82 -147q0 -93 -67.5 -153t-170.5 -60q-56 0 -101.5 16.5t-71 39.5t-42.5 46.5t-23 40.5l-6 16l138 66q0 -4 1.5 -10.5t8 -23.5t16.5 -30t30.5 -23.5 t47.5 -10.5q42 0 68 23t26 63q0 41 -27 67.5t-67 26.5l-27 -4v96h31q30 0 54 24t24 58q0 30 -24 51t-56 21q-36 0 -60 -20t-30 -40z" />
<glyph unicode="&#xb4;" horiz-adv-x="1159" d="M279 1360l415 360l187 -235l-488 -283z" />
<glyph unicode="&#xb6;" horiz-adv-x="1449" d="M1116 0v1477h-125v-1477h-211v627h-196q-120 0 -222.5 44.5t-170.5 119t-106 172.5t-38 206q0 145 64.5 263t188 188t284.5 70h743v-1690h-211z" />
<glyph unicode="&#xb7;" horiz-adv-x="714" d="M356 786q98 0 167 -68.5t69 -166.5q0 -97 -69 -165.5t-167 -68.5q-97 0 -165 68.5t-68 165.5q0 98 68 166.5t165 68.5z" />
<glyph unicode="&#xb8;" horiz-adv-x="913" d="M551 8l-45 -137q44 0 89 -13t85 -38t65 -66.5t25 -91.5q0 -51 -17 -96t-52.5 -84t-97.5 -61.5t-144 -22.5q-52 0 -103.5 17.5t-88 42.5t-66 50t-43.5 42l-15 18l148 110q3 -4 8.5 -10.5t23.5 -23t36.5 -29t46 -23t53.5 -10.5q53 0 77.5 23.5t24.5 56.5q0 44 -39.5 68 t-87.5 24q-33 0 -59 -4.5t-35 -9.5l-10 -4l-21 16l99 301z" />
<glyph unicode="&#xb9;" horiz-adv-x="286" d="M18 1427v146l181 117h69v-639h-145v444z" />
<glyph unicode="&#xba;" horiz-adv-x="1067" d="M143 1374q0 150 114 248t280 98q163 0 275 -98t112 -248q0 -149 -109.5 -245.5t-277.5 -96.5q-176 0 -285 96t-109 246zM383 1374q0 -67 42 -109t110 -42q66 0 108.5 42.5t42.5 108.5q0 67 -43.5 110.5t-107.5 43.5t-108 -43.5t-44 -110.5z" />
<glyph unicode="&#xbb;" horiz-adv-x="1280" d="M301 1081l399 -512l-399 -512l-190 150l282 362l-282 363zM623 207l282 362l-282 363l190 149l399 -512l-399 -512z" />
<glyph unicode="&#xbc;" horiz-adv-x="1794" d="M123 1286v223l278 181h107v-983h-223v686zM1432 1690l-983 -1690h-242l983 1690h242zM1612 403h112v-196h-112v-207h-211v207h-483v67l473 709h221v-580zM1401 684h-2l-174 -281h176v281z" />
<glyph unicode="&#xbd;" horiz-adv-x="1935" d="M123 1286v223l278 181h107v-983h-223v686zM1432 1690l-983 -1690h-242l983 1690h242zM1454 801q-46 0 -89 -46.5t-63 -92.5l-20 -46l-184 89q2 6 6 16t19 39.5t32.5 56t48 59t65 56t83.5 39.5t102 16q95 0 167 -24.5t110.5 -59.5t62.5 -84.5t30.5 -89t6.5 -82.5 q0 -64 -35 -133.5t-85.5 -124t-101 -100t-85.5 -69.5l-35 -25h360v-195h-755v55q20 17 54 45.5t120 109.5t151.5 152t119.5 153t54 132q0 15 -1.5 30t-10 39t-22 41.5t-41 30.5t-64.5 13z" />
<glyph unicode="&#xbe;" horiz-adv-x="2000" d="M291 1403l-172 84q2 8 7 22.5t28 50.5t55 63.5t92.5 50t136.5 22.5q137 0 225.5 -78t88.5 -201q0 -115 -84 -180q123 -75 123 -219q0 -138 -101.5 -228t-255.5 -90q-61 0 -113.5 13t-88 34t-64.5 46.5t-46 51t-28.5 46.5t-15.5 34l-4 13l202 98q1 -6 2.5 -15.5 t11.5 -34.5t25 -44.5t46 -35t71 -15.5q62 0 100.5 33.5t38.5 93.5q0 61 -40 100t-99 39l-41 -6v143h47q44 0 79.5 35t35.5 86q0 45 -36 76t-83 31q-34 0 -61 -12.5t-41.5 -30t-24.5 -34.5t-13 -29zM1638 1690l-983 -1690h-241l983 1690h241zM1819 403h112v-196h-112v-207 h-211v207h-484v67l473 709h222v-580zM1608 684h-2l-174 -281h176v281z" />
<glyph unicode="&#xbf;" horiz-adv-x="1220" d="M635 719q-98 0 -167 68.5t-69 166.5q0 97 69 165.5t167 68.5q97 0 165 -68.5t68 -165.5q0 -98 -68 -166.5t-165 -68.5zM1174 -176l-302 145q-10 -36 -27.5 -70.5t-46 -67.5t-72 -53t-95.5 -20q-70 0 -118 47.5t-48 120.5q0 42 12 71.5t38 50.5t51.5 35t68 35t72.5 40 q62 40 79 90t17 133v223h-338v-115q0 -32 -1.5 -50t-8 -40.5t-22 -38t-40.5 -26.5q-162 -69 -254 -167.5t-92 -240.5q0 -140 81.5 -253.5t214 -174.5t286.5 -61q93 0 173.5 21t134.5 54t98 74.5t69 81t41.5 75.5t22.5 56t6 25z" />
<glyph unicode="&#xc0;" horiz-adv-x="1605" d="M506 2359l416 -360l-115 -158l-488 283zM981 1690l682 -1690h-414l-125 338h-643l-125 -338h-413l682 1690h356zM993 676l-188 491h-4l-189 -491h381z" />
<glyph unicode="&#xc1;" horiz-adv-x="1605" d="M682 1999l416 360l186 -235l-487 -283zM981 1690l682 -1690h-414l-125 338h-643l-125 -338h-413l682 1690h356zM993 676l-188 491h-4l-189 -491h381z" />
<glyph unicode="&#xc2;" horiz-adv-x="1605" d="M350 2028l453 331l452 -331l-139 -187l-313 230l-314 -230zM981 1690l682 -1690h-414l-125 338h-643l-125 -338h-413l682 1690h356zM993 676l-188 491h-4l-189 -491h381z" />
<glyph unicode="&#xc3;" horiz-adv-x="1605" d="M784 1954q-81 39 -155 39q-29 0 -52 -23.5t-31 -47.5l-9 -24h-207q1 7 3.5 20t12.5 49.5t22.5 70t35.5 74t50.5 70t67.5 49.5t86 20q36 0 89 -14t89 -28l35 -14q82 -38 156 -38q29 0 52 23.5t31 47.5l9 23h207q-1 -7 -3.5 -20t-12.5 -49.5t-23 -70t-36 -74t-50 -70 t-67.5 -49.5t-86.5 -20q-36 0 -89 14t-88 28zM981 1690l682 -1690h-414l-125 338h-643l-125 -338h-413l682 1690h356zM993 676l-188 491h-4l-189 -491h381z" />
<glyph unicode="&#xc4;" horiz-adv-x="1605" d="M559 2259q78 0 133.5 -55t55.5 -133t-55.5 -133.5t-133.5 -55.5t-133 55.5t-55 133.5t55 133t133 55zM1044 2259q78 0 133.5 -55t55.5 -133t-55.5 -133.5t-133.5 -55.5t-133 55.5t-55 133.5t55 133t133 55zM981 1690l682 -1690h-414l-125 338h-643l-125 -338h-413 l682 1690h356zM993 676l-188 491h-4l-189 -491h381z" />
<glyph unicode="&#xc5;" horiz-adv-x="1605" d="M473 2140q0 126 95 208.5t235 82.5q141 0 235.5 -82.5t94.5 -208.5q0 -129 -92.5 -211t-237.5 -82q-147 0 -238.5 81.5t-91.5 211.5zM678 2140q0 -55 35 -93t90 -38q53 0 89 38t36 93q0 53 -36.5 90t-88.5 37q-51 0 -88 -37.5t-37 -89.5zM981 1690l682 -1690h-414 l-125 338h-643l-125 -338h-413l682 1690h356zM993 676l-188 491h-4l-189 -491h381z" />
<glyph unicode="&#xc6;" horiz-adv-x="2007" d="M547 338l-144 -338h-413l772 1690h1147v-338h-582v-336h557v-338h-557v-340h582v-338h-967v338h-395zM942 676v618h-4l-256 -618h260z" />
<glyph unicode="&#xc7;" horiz-adv-x="1542" d="M1022 348q55 0 109.5 11t93 26t69 30.5t45.5 26.5l15 11l164 -328q-8 -6 -22.5 -16.5t-67 -37.5t-111.5 -47.5t-155 -37.5t-199 -17q-68 0 -123 8l-35 -106q44 0 89 -13t85 -38t65 -66.5t25 -91.5q0 -51 -17 -96t-52.5 -84t-97.5 -61.5t-144 -22.5q-52 0 -103.5 17.5 t-88 42.5t-66 50t-44.5 42l-14 18l148 110q3 -4 8.5 -10.5t23.5 -23t36.5 -29t46 -23t53.5 -10.5q53 0 77.5 23.5t24.5 56.5q0 44 -39.5 68t-87.5 24q-33 0 -59 -4.5t-36 -9.5l-9 -4l-21 16l84 258q-181 57 -326.5 177.5t-232 292t-86.5 362.5q0 142 49 277t136 242.5 t201 189t251 125.5t279 44q103 0 198 -16t157 -39t109.5 -45.5t68.5 -38.5l22 -16l-164 -328q-6 4 -16 11t-44 25t-70 32t-91.5 25t-110.5 11q-112 0 -206 -30t-157.5 -79.5t-108 -114t-65 -133.5t-20.5 -138q0 -70 20.5 -139t65 -134t108 -115t157.5 -80t206 -30z" />
<glyph unicode="&#xc8;" horiz-adv-x="1187" d="M297 2359l416 -360l-115 -158l-487 283zM1090 1690v-338h-582v-336h557v-338h-557v-340h582v-338h-967v1690h967z" />
<glyph unicode="&#xc9;" horiz-adv-x="1187" d="M352 1999l416 360l186 -235l-487 -283zM1090 1690v-338h-582v-336h557v-338h-557v-340h582v-338h-967v1690h967z" />
<glyph unicode="&#xca;" horiz-adv-x="1187" d="M141 2028l453 331l453 -331l-140 -187l-313 230l-313 -230zM1090 1690v-338h-582v-336h557v-338h-557v-340h582v-338h-967v1690h967z" />
<glyph unicode="&#xcb;" horiz-adv-x="1187" d="M350 2259q78 0 133.5 -55t55.5 -133t-55.5 -133.5t-133.5 -55.5t-133 55.5t-55 133.5t55 133t133 55zM836 2259q78 0 133 -55t55 -133t-55 -133.5t-133 -55.5t-133.5 55.5t-55.5 133.5t55.5 133t133.5 55zM1090 1690v-338h-582v-336h557v-338h-557v-340h582v-338h-967 v1690h967z" />
<glyph unicode="&#xcc;" horiz-adv-x="630" d="M18 2359l416 -360l-115 -158l-487 283zM508 1690v-1690h-385v1690h385z" />
<glyph unicode="&#xcd;" horiz-adv-x="630" d="M115 1999l415 360l187 -235l-488 -283zM508 1690v-1690h-385v1690h385z" />
<glyph unicode="&#xce;" horiz-adv-x="630" d="M-137 2028l452 331l453 -331l-139 -187l-314 230l-313 -230zM508 1690v-1690h-385v1690h385z" />
<glyph unicode="&#xcf;" horiz-adv-x="630" d="M74 2259q78 0 133 -55t55 -133t-55 -133.5t-133 -55.5t-133.5 55.5t-55.5 133.5t55.5 133t133.5 55zM559 2259q78 0 133.5 -55t55.5 -133t-55.5 -133.5t-133.5 -55.5t-133 55.5t-55 133.5t55 133t133 55zM508 1690v-1690h-385v1690h385z" />
<glyph unicode="&#xd0;" horiz-adv-x="1589" d="M33 688v313h168v689h489q173 0 329 -63.5t271.5 -173.5t183.5 -269t68 -340q-1 -181 -69.5 -339.5t-183.5 -268.5t-271 -173t-328 -63h-489v688h-168zM1126 846q-2 214 -136 357t-345 143h-59v-345h223v-313h-223v-344h59q212 0 346.5 143.5t134.5 358.5z" />
<glyph unicode="&#xd1;" horiz-adv-x="1691" d="M827 1954q-81 39 -155 39q-29 0 -52 -23.5t-32 -47.5l-8 -24h-207q1 7 3.5 20t12.5 49.5t22.5 70t35.5 74t50.5 70t67.5 49.5t86 20q36 0 89 -14t88 -28l36 -14q82 -38 156 -38q29 0 52 23.5t32 47.5l8 23h207q-1 -7 -3.5 -20t-12.5 -49.5t-23 -70t-36 -74t-50 -70 t-67.5 -49.5t-86.5 -20q-36 0 -89 14t-89 28zM508 1049v-1049h-385v1690h385l672 -1049h4v1049h385v-1690h-385l-672 1049h-4z" />
<glyph unicode="&#xd2;" horiz-adv-x="1796" d="M600 2359l416 -360l-115 -158l-487 283zM47 846q0 182 68 344.5t183 278.5t272 183.5t329 67.5q173 0 330 -67.5t271 -183.5t181.5 -278.5t67.5 -344.5q0 -183 -65 -345t-177.5 -279t-270.5 -185t-337 -68q-184 0 -343.5 68t-270.5 185t-174.5 279t-63.5 345zM463 846 q0 -78 15 -149.5t48.5 -136.5t83 -113t123.5 -76.5t166 -28.5q111 0 196.5 42.5t136 115.5t76 160.5t25.5 185.5q0 77 -16 149t-51 137t-85 113t-122.5 76.5t-159.5 28.5q-107 0 -192.5 -43t-137.5 -115t-79 -160.5t-27 -185.5z" />
<glyph unicode="&#xd3;" horiz-adv-x="1796" d="M696 1999l416 360l186 -235l-487 -283zM47 846q0 182 68 344.5t183 278.5t272 183.5t329 67.5q173 0 330 -67.5t271 -183.5t181.5 -278.5t67.5 -344.5q0 -183 -65 -345t-177.5 -279t-270.5 -185t-337 -68q-184 0 -343.5 68t-270.5 185t-174.5 279t-63.5 345zM463 846 q0 -78 15 -149.5t48.5 -136.5t83 -113t123.5 -76.5t166 -28.5q111 0 196.5 42.5t136 115.5t76 160.5t25.5 185.5q0 77 -16 149t-51 137t-85 113t-122.5 76.5t-159.5 28.5q-107 0 -192.5 -43t-137.5 -115t-79 -160.5t-27 -185.5z" />
<glyph unicode="&#xd4;" horiz-adv-x="1796" d="M444 2028l453 331l453 -331l-140 -187l-313 230l-313 -230zM47 846q0 182 68 344.5t183 278.5t272 183.5t329 67.5q173 0 330 -67.5t271 -183.5t181.5 -278.5t67.5 -344.5q0 -183 -65 -345t-177.5 -279t-270.5 -185t-337 -68q-184 0 -343.5 68t-270.5 185t-174.5 279 t-63.5 345zM463 846q0 -78 15 -149.5t48.5 -136.5t83 -113t123.5 -76.5t166 -28.5q111 0 196.5 42.5t136 115.5t76 160.5t25.5 185.5q0 77 -16 149t-51 137t-85 113t-122.5 76.5t-159.5 28.5q-107 0 -192.5 -43t-137.5 -115t-79 -160.5t-27 -185.5z" />
<glyph unicode="&#xd5;" horiz-adv-x="1796" d="M879 1954q-82 39 -156 39q-29 0 -52 -23.5t-31 -47.5l-9 -24h-207q1 7 3.5 20t12.5 49.5t22.5 70t35.5 74t50.5 70t67.5 49.5t86 20q36 0 89 -14t89 -28l35 -14q82 -38 156 -38q29 0 52 23.5t31 47.5l9 23h207q-1 -7 -3.5 -20t-12.5 -49.5t-22.5 -70t-35.5 -74t-50.5 -70 t-67.5 -49.5t-86 -20q-36 0 -89 14t-89 28zM47 846q0 182 68 344.5t183 278.5t272 183.5t329 67.5q173 0 330 -67.5t271 -183.5t181.5 -278.5t67.5 -344.5q0 -183 -65 -345t-177.5 -279t-270.5 -185t-337 -68q-184 0 -343.5 68t-270.5 185t-174.5 279t-63.5 345zM463 846 q0 -78 15 -149.5t48.5 -136.5t83 -113t123.5 -76.5t166 -28.5q111 0 196.5 42.5t136 115.5t76 160.5t25.5 185.5q0 77 -16 149t-51 137t-85 113t-122.5 76.5t-159.5 28.5q-107 0 -192.5 -43t-137.5 -115t-79 -160.5t-27 -185.5z" />
<glyph unicode="&#xd6;" horiz-adv-x="1796" d="M655 2259q78 0 133.5 -55t55.5 -133t-55.5 -133.5t-133.5 -55.5t-133 55.5t-55 133.5t55 133t133 55zM1141 2259q78 0 133 -55t55 -133t-55 -133.5t-133 -55.5t-133.5 55.5t-55.5 133.5t55.5 133t133.5 55zM47 846q0 182 68 344.5t183 278.5t272 183.5t329 67.5 q173 0 330 -67.5t271 -183.5t181.5 -278.5t67.5 -344.5q0 -183 -65 -345t-177.5 -279t-270.5 -185t-337 -68q-184 0 -343.5 68t-270.5 185t-174.5 279t-63.5 345zM463 846q0 -78 15 -149.5t48.5 -136.5t83 -113t123.5 -76.5t166 -28.5q111 0 196.5 42.5t136 115.5t76 160.5 t25.5 185.5q0 77 -16 149t-51 137t-85 113t-122.5 76.5t-159.5 28.5q-107 0 -192.5 -43t-137.5 -115t-79 -160.5t-27 -185.5z" />
<glyph unicode="&#xd7;" horiz-adv-x="1296" d="M1182 537l-219 -222l-314 314l-313 -314l-221 224l311 311l-311 313l221 219l311 -311l314 311l221 -221l-314 -313z" />
<glyph unicode="&#xd8;" horiz-adv-x="1796" d="M137 121l113 141q-98 117 -150.5 266.5t-52.5 317.5q0 182 68 344.5t183 278.5t272 183.5t329 67.5q226 0 420 -112l111 139l229 -176l-119 -150q99 -117 154 -264t55 -311q0 -183 -65 -345t-177.5 -279t-270.5 -185t-337 -68q-236 0 -428 109l-104 -133zM463 846 q0 -145 47 -256l571 721q-80 39 -182 39q-107 0 -192.5 -43t-137.5 -115t-79 -160.5t-27 -185.5zM1333 846q0 138 -51 252l-571 -719q78 -37 188 -37q111 0 196.5 42.5t136 115.5t76 160.5t25.5 185.5z" />
<glyph unicode="&#xd9;" horiz-adv-x="1523" d="M465 2359l416 -360l-115 -158l-487 283zM1036 1690v-977q0 -140 -30 -220.5t-88 -112.5t-156 -32t-156 32t-88.5 112.5t-30.5 220.5v977h-385v-1090q0 -312 168 -471.5t492 -159.5t491.5 159.5t167.5 471.5v1090h-385z" />
<glyph unicode="&#xda;" horiz-adv-x="1523" d="M520 1999l416 360l186 -235l-487 -283zM1036 1690v-977q0 -140 -30 -220.5t-88 -112.5t-156 -32t-156 32t-88.5 112.5t-30.5 220.5v977h-385v-1090q0 -312 168 -471.5t492 -159.5t491.5 159.5t167.5 471.5v1090h-385z" />
<glyph unicode="&#xdb;" horiz-adv-x="1523" d="M309 2028l453 331l452 -331l-139 -187l-313 230l-313 -230zM1036 1690v-977q0 -140 -30 -220.5t-88 -112.5t-156 -32t-156 32t-88.5 112.5t-30.5 220.5v977h-385v-1090q0 -312 168 -471.5t492 -159.5t491.5 159.5t167.5 471.5v1090h-385z" />
<glyph unicode="&#xdc;" horiz-adv-x="1523" d="M518 2259q78 0 133.5 -55t55.5 -133t-55.5 -133.5t-133.5 -55.5t-133 55.5t-55 133.5t55 133t133 55zM1004 2259q78 0 133 -55t55 -133t-55 -133.5t-133 -55.5t-133.5 55.5t-55.5 133.5t55.5 133t133.5 55zM1036 1690v-977q0 -140 -30 -220.5t-88 -112.5t-156 -32 t-156 32t-88.5 112.5t-30.5 220.5v977h-385v-1090q0 -312 168 -471.5t492 -159.5t491.5 159.5t167.5 471.5v1090h-385z" />
<glyph unicode="&#xdd;" horiz-adv-x="1507" d="M514 1999l416 360l186 -235l-487 -283zM-61 1690h462l353 -541l352 541h463l-623 -932v-758h-385v758z" />
<glyph unicode="&#xde;" horiz-adv-x="1363" d="M508 1690v-314h231q168 0 296.5 -56t205 -175t76.5 -289q0 -128 -44 -231.5t-121.5 -171t-183 -104t-229.5 -36.5h-231v-313h-385v1690h385zM508 621h108q60 0 109 11.5t90 36t63.5 69t22.5 106.5t-22.5 107t-63.5 70t-90 36.5t-109 11.5h-108v-448z" />
<glyph unicode="&#xdf;" horiz-adv-x="1343" d="M668 -31v332q106 0 174.5 66.5t68.5 173.5q0 116 -64 186t-179 70v276q91 0 156 61t65 156q0 93 -49 145t-138 52q-58 0 -106.5 -49.5t-48.5 -134.5v-1303h-363v666h-135v276h135v332q0 149 72.5 269t190.5 184.5t255 64.5q234 -4 381.5 -146t147.5 -356 q0 -233 -205 -348q128 -59 199 -164.5t71 -255.5q0 -160 -80.5 -286.5t-224 -196.5t-323.5 -70z" />
<glyph unicode="&#xe0;" d="M401 1720l416 -360l-115 -158l-487 283zM47 524q0 -114 39 -216t106.5 -177t165.5 -118.5t211 -43.5q103 0 193 41t151 109h5v-119h358v1051h-363v-101q-134 131 -344 131q-113 0 -211 -44t-165.5 -119t-106.5 -177.5t-39 -216.5zM432 524q0 108 71 178t175 70 q103 0 173.5 -70.5t70.5 -177.5t-69 -176t-175 -69q-110 0 -178 68.5t-68 176.5z" />
<glyph unicode="&#xe1;" d="M580 1360l415 360l187 -235l-488 -283zM47 524q0 -114 39 -216t106.5 -177t165.5 -118.5t211 -43.5q103 0 193 41t151 109h5v-119h358v1051h-363v-101q-134 131 -344 131q-113 0 -211 -44t-165.5 -119t-106.5 -177.5t-39 -216.5zM432 524q0 108 71 178t175 70 q103 0 173.5 -70.5t70.5 -177.5t-69 -176t-175 -69q-110 0 -178 68.5t-68 176.5z" />
<glyph unicode="&#xe2;" d="M246 1389l452 331l453 -331l-139 -187l-314 230l-313 -230zM47 524q0 -114 39 -216t106.5 -177t165.5 -118.5t211 -43.5q103 0 193 41t151 109h5v-119h358v1051h-363v-101q-134 131 -344 131q-113 0 -211 -44t-165.5 -119t-106.5 -177.5t-39 -216.5zM432 524 q0 108 71 178t175 70q103 0 173.5 -70.5t70.5 -177.5t-69 -176t-175 -69q-110 0 -178 68.5t-68 176.5z" />
<glyph unicode="&#xe3;" d="M680 1315q-82 39 -156 39q-29 0 -52 -23.5t-32 -46.5l-8 -24h-207q1 7 3.5 20t12.5 49.5t23 69.5t36 74t50 70t67.5 49t86.5 20q36 0 89 -14t89 -28l35 -14q81 -38 155 -38q29 0 52.5 23.5t31.5 46.5l9 24h206q-1 -7 -3.5 -20t-12.5 -49.5t-22.5 -69.5t-35.5 -74 t-50.5 -70t-67.5 -49t-86 -20q-36 0 -89 14t-88 28zM47 524q0 -114 39 -216t106.5 -177t165.5 -118.5t211 -43.5q103 0 193 41t151 109h5v-119h358v1051h-363v-101q-134 131 -344 131q-113 0 -211 -44t-165.5 -119t-106.5 -177.5t-39 -216.5zM432 524q0 108 71 178t175 70 q103 0 173.5 -70.5t70.5 -177.5t-69 -176t-175 -69q-110 0 -178 68.5t-68 176.5z" />
<glyph unicode="&#xe4;" d="M457 1620q78 0 133 -55t55 -133t-55 -133.5t-133 -55.5t-133.5 55.5t-55.5 133.5t55.5 133t133.5 55zM942 1620q78 0 133 -55t55 -133t-55 -133.5t-133 -55.5t-133 55.5t-55 133.5t55 133t133 55zM47 524q0 -114 39 -216t106.5 -177t165.5 -118.5t211 -43.5q103 0 193 41 t151 109h5v-119h358v1051h-363v-101q-134 131 -344 131q-113 0 -211 -44t-165.5 -119t-106.5 -177.5t-39 -216.5zM432 524q0 108 71 178t175 70q103 0 173.5 -70.5t70.5 -177.5t-69 -176t-175 -69q-110 0 -178 68.5t-68 176.5z" />
<glyph unicode="&#xe5;" d="M369 1501q0 126 95 208.5t234 82.5q141 0 235.5 -82.5t94.5 -208.5q0 -129 -92.5 -211t-237.5 -82q-147 0 -238 81.5t-91 211.5zM573 1501q0 -55 35 -93t90 -38q53 0 89 38t36 93q0 53 -36.5 90t-88.5 37q-51 0 -88 -37.5t-37 -89.5zM47 524q0 114 39 216.5t106.5 177.5 t165.5 119t211 44q210 0 344 -131v101h363v-1051h-358v119h-5q-61 -68 -151 -109t-193 -41q-113 0 -211 43.5t-165.5 118.5t-106.5 177t-39 216zM432 524q0 -108 68 -176.5t178 -68.5q106 0 175 69t69 176t-70.5 177.5t-173.5 70.5q-104 0 -175 -70t-71 -178z" />
<glyph unicode="&#xe6;" horiz-adv-x="1931" d="M229 731l-114 248q5 4 15.5 11t47.5 24.5t79.5 31t112 24.5t144.5 11q111 0 229 -31t205 -100q160 131 373 131q121 0 223 -35.5t178 -104t119 -175.5t43 -242q0 -37 -2 -49h-762q0 -47 15 -85t38.5 -62t54.5 -40t61 -23t59 -7q88 0 139 23.5t117 93.5l262 -131 q-164 -275 -545 -275q-128 0 -241.5 51t-194.5 142q-5 -8 -15.5 -21t-50 -46t-86.5 -58.5t-127 -46.5t-170 -21q-168 0 -278.5 85t-110.5 225q0 146 100.5 241.5t274.5 95.5q208 0 321 -79v75q0 81 -71.5 131t-157.5 50q-84 0 -155 -15.5t-101 -31.5zM1130 676h400 q-12 82 -65 126t-134 44q-91 0 -143.5 -47.5t-57.5 -122.5zM408 309q0 -55 44.5 -89t116.5 -34q70 0 122 38t52 85q0 46 -51.5 80.5t-122.5 34.5q-73 0 -117 -30t-44 -85z" />
<glyph unicode="&#xe7;" horiz-adv-x="1005" d="M362 -248l80 248q-171 57 -283 200.5t-112 321.5q0 151 81.5 280.5t215.5 204t285 74.5q65 0 125.5 -10t100 -24.5t69.5 -29t44 -24.5l13 -10l-123 -248q-8 5 -22 13.5t-60 22t-94 13.5q-103 0 -176.5 -75.5t-73.5 -182.5q0 -108 73.5 -184t176.5 -76q48 0 92 12t64 24 l20 13l123 -252q-5 -4 -14.5 -10t-42.5 -22.5t-70.5 -29t-98.5 -22.5t-126 -10q-25 0 -37 2l-33 -100q44 0 89 -13t85 -38t65 -66.5t25 -91.5q0 -51 -17 -96t-52.5 -84t-97.5 -61.5t-144 -22.5q-52 0 -103 17.5t-87.5 42.5t-66 50t-43.5 42l-15 18l147 110q3 -4 8.5 -10.5 t23.5 -23t36.5 -29t46 -23t53.5 -10.5q53 0 77.5 23.5t24.5 56.5q0 44 -39.5 68t-87.5 24q-33 0 -59 -4.5t-36 -9.5l-9 -4z" />
<glyph unicode="&#xe8;" horiz-adv-x="1234" d="M319 1720l416 -360l-114 -158l-488 283zM1186 475h-762q0 -58 22 -102t57.5 -68t73 -35.5t74.5 -11.5q88 0 139 23.5t117 93.5l262 -131q-164 -275 -544 -275q-156 0 -289 74.5t-211 202.5t-78 278q0 151 78 279.5t211 203t289 74.5q121 0 223 -35.5t178 -104t119 -175.5 t43 -242q0 -37 -2 -49zM434 676h400q-12 82 -65 126t-134 44q-91 0 -143.5 -47.5t-57.5 -122.5z" />
<glyph unicode="&#xe9;" horiz-adv-x="1234" d="M498 1360l415 360l187 -235l-488 -283zM1186 475h-762q0 -58 22 -102t57.5 -68t73 -35.5t74.5 -11.5q88 0 139 23.5t117 93.5l262 -131q-164 -275 -544 -275q-156 0 -289 74.5t-211 202.5t-78 278q0 151 78 279.5t211 203t289 74.5q121 0 223 -35.5t178 -104t119 -175.5 t43 -242q0 -37 -2 -49zM434 676h400q-12 82 -65 126t-134 44q-91 0 -143.5 -47.5t-57.5 -122.5z" />
<glyph unicode="&#xea;" horiz-adv-x="1234" d="M164 1389l452 331l453 -331l-139 -187l-314 230l-313 -230zM1186 475h-762q0 -58 22 -102t57.5 -68t73 -35.5t74.5 -11.5q88 0 139 23.5t117 93.5l262 -131q-164 -275 -544 -275q-156 0 -289 74.5t-211 202.5t-78 278q0 151 78 279.5t211 203t289 74.5q121 0 223 -35.5 t178 -104t119 -175.5t43 -242q0 -37 -2 -49zM434 676h400q-12 82 -65 126t-134 44q-91 0 -143.5 -47.5t-57.5 -122.5z" />
<glyph unicode="&#xeb;" horiz-adv-x="1234" d="M375 1620q78 0 133 -55t55 -133t-55 -133.5t-133 -55.5t-133.5 55.5t-55.5 133.5t55.5 133t133.5 55zM860 1620q78 0 133.5 -55t55.5 -133t-55.5 -133.5t-133.5 -55.5t-133 55.5t-55 133.5t55 133t133 55zM1186 475h-762q0 -58 22 -102t57.5 -68t73 -35.5t74.5 -11.5 q88 0 139 23.5t117 93.5l262 -131q-164 -275 -544 -275q-156 0 -289 74.5t-211 202.5t-78 278q0 151 78 279.5t211 203t289 74.5q121 0 223 -35.5t178 -104t119 -175.5t43 -242q0 -37 -2 -49zM434 676h400q-12 82 -65 126t-134 44q-91 0 -143.5 -47.5t-57.5 -122.5z" />
<glyph unicode="&#xec;" horiz-adv-x="608" d="M8 1720l416 -360l-115 -158l-487 283zM123 1051v-1051h362v1051h-362z" />
<glyph unicode="&#xed;" horiz-adv-x="608" d="M184 1360l416 360l186 -235l-487 -283zM123 1051v-1051h362v1051h-362z" />
<glyph unicode="&#xee;" horiz-adv-x="608" d="M-147 1389l452 331l453 -331l-140 -187l-313 230l-313 -230zM123 1051v-1051h362v1051h-362z" />
<glyph unicode="&#xef;" horiz-adv-x="608" d="M61 1620q78 0 133.5 -55t55.5 -133t-55.5 -133.5t-133.5 -55.5t-133 55.5t-55 133.5t55 133t133 55zM547 1620q78 0 133 -55t55 -133t-55 -133.5t-133 -55.5t-133.5 55.5t-55.5 133.5t55.5 133t133.5 55zM123 1051v-1051h362v1051h-362z" />
<glyph unicode="&#xf0;" horiz-adv-x="1400" d="M84 524q0 99 33 189.5t88 156t124 114t142 73t141 24.5q128 0 185 -32q-92 130 -240 235l-170 -168l-158 158l127 127q-57 27 -114 48t-85 29l-28 7l86 307q20 -4 54.5 -13.5t135.5 -47.5t195 -86l150 147l155 -160l-106 -106q88 -62 162.5 -130.5t147 -162.5 t122.5 -197.5t81 -235.5t31 -276q0 -242 -177 -398.5t-449 -156.5q-283 0 -458 155.5t-175 399.5zM469 524q0 -108 68 -176.5t178 -68.5q106 0 174.5 69t68.5 176v11q-4 103 -74 170t-169 67q-104 0 -175 -70t-71 -178z" />
<glyph unicode="&#xf1;" horiz-adv-x="1353" d="M657 1315q-81 39 -155 39q-29 0 -52 -23.5t-32 -46.5l-8 -24h-207q1 7 3.5 20t12.5 49.5t22.5 69.5t35.5 74t50.5 70t67.5 49t86 20q36 0 89 -14t88 -28l36 -14q82 -38 156 -38q29 0 52 23.5t32 46.5l8 24h207q-1 -7 -3.5 -20t-12.5 -49.5t-23 -69.5t-36 -74t-50 -70 t-67.5 -49t-86.5 -20q-36 0 -89 14t-89 28zM485 0v594q0 78 66.5 141.5t148.5 63.5q84 0 136.5 -61.5t52.5 -143.5v-594h362v692q0 84 -29.5 152.5t-76.5 111.5t-109 72t-123 41t-122 12q-161 0 -302 -141h-4v111h-362v-1051h362z" />
<glyph unicode="&#xf2;" horiz-adv-x="1353" d="M379 1720l416 -360l-115 -158l-487 283zM47 524q0 -244 175 -399.5t458 -155.5q272 0 449.5 156.5t177.5 398.5q0 160 -84 288.5t-227 198.5t-316 70q-131 0 -248 -41.5t-201.5 -114t-134 -176.5t-49.5 -225zM432 524q0 108 71 178t175 70q103 0 173.5 -70.5t70.5 -177.5 t-69 -176t-175 -69q-110 0 -178 68.5t-68 176.5z" />
<glyph unicode="&#xf3;" horiz-adv-x="1353" d="M475 1360l416 360l186 -235l-487 -283zM47 524q0 -244 175 -399.5t458 -155.5q272 0 449.5 156.5t177.5 398.5q0 160 -84 288.5t-227 198.5t-316 70q-131 0 -248 -41.5t-201.5 -114t-134 -176.5t-49.5 -225zM432 524q0 108 71 178t175 70q103 0 173.5 -70.5t70.5 -177.5 t-69 -176t-175 -69q-110 0 -178 68.5t-68 176.5z" />
<glyph unicode="&#xf4;" horiz-adv-x="1353" d="M223 1389l453 331l452 -331l-139 -187l-313 230l-314 -230zM47 524q0 -244 175 -399.5t458 -155.5q272 0 449.5 156.5t177.5 398.5q0 160 -84 288.5t-227 198.5t-316 70q-131 0 -248 -41.5t-201.5 -114t-134 -176.5t-49.5 -225zM432 524q0 108 71 178t175 70 q103 0 173.5 -70.5t70.5 -177.5t-69 -176t-175 -69q-110 0 -178 68.5t-68 176.5z" />
<glyph unicode="&#xf5;" horiz-adv-x="1353" d="M657 1315q-81 39 -155 39q-29 0 -52 -23.5t-32 -46.5l-8 -24h-207q1 7 3.5 20t12.5 49.5t22.5 69.5t35.5 74t50.5 70t67.5 49t86 20q36 0 89 -14t88 -28l36 -14q82 -38 156 -38q29 0 52 23.5t32 46.5l8 24h207q-1 -7 -3.5 -20t-12.5 -49.5t-23 -69.5t-36 -74t-50 -70 t-67.5 -49t-86.5 -20q-36 0 -89 14t-89 28zM47 524q0 -244 175 -399.5t458 -155.5q272 0 449.5 156.5t177.5 398.5q0 160 -84 288.5t-227 198.5t-316 70q-131 0 -248 -41.5t-201.5 -114t-134 -176.5t-49.5 -225zM432 524q0 108 71 178t175 70q103 0 173.5 -70.5t70.5 -177.5 t-69 -176t-175 -69q-110 0 -178 68.5t-68 176.5z" />
<glyph unicode="&#xf6;" horiz-adv-x="1353" d="M434 1620q78 0 133.5 -55t55.5 -133t-55.5 -133.5t-133.5 -55.5t-133 55.5t-55 133.5t55 133t133 55zM920 1620q78 0 133 -55t55 -133t-55 -133.5t-133 -55.5t-133.5 55.5t-55.5 133.5t55.5 133t133.5 55zM47 524q0 -244 175 -399.5t458 -155.5q272 0 449.5 156.5 t177.5 398.5q0 160 -84 288.5t-227 198.5t-316 70q-131 0 -248 -41.5t-201.5 -114t-134 -176.5t-49.5 -225zM432 524q0 108 71 178t175 70q103 0 173.5 -70.5t70.5 -177.5t-69 -176t-175 -69q-110 0 -178 68.5t-68 176.5z" />
<glyph unicode="&#xf7;" horiz-adv-x="1296" d="M645 1475q71 0 119.5 -48.5t48.5 -119.5q0 -68 -49 -116t-119 -48q-67 0 -115.5 48.5t-48.5 115.5q0 70 48 119t116 49zM123 1006h1051v-314h-1051v314zM645 555q71 0 119.5 -48.5t48.5 -119.5q0 -68 -49 -116t-119 -48q-67 0 -115.5 48.5t-48.5 115.5q0 70 48 119 t116 49z" />
<glyph unicode="&#xf8;" horiz-adv-x="1353" d="M1368 991l-174 -141q113 -138 113 -326q0 -242 -177.5 -398.5t-449.5 -156.5q-254 0 -420 125l-182 -147l-92 110l170 138q-109 140 -109 329q0 121 49.5 225t134 176.5t201.5 114t248 41.5q237 0 412 -129l184 150zM432 524q0 -53 14 -94l371 299q-62 43 -139 43 q-104 0 -175 -70t-71 -178zM678 279q106 0 175 69t69 176q0 43 -17 92l-368 -299q59 -38 141 -38z" />
<glyph unicode="&#xf9;" horiz-adv-x="1343" d="M375 1720l416 -360l-115 -158l-488 283zM102 1051v-588q0 -262 136.5 -378t433.5 -116t433 116t136 378v588h-362v-500q0 -156 -47 -221.5t-160 -65.5t-160 65.5t-47 221.5v500h-363z" />
<glyph unicode="&#xfa;" horiz-adv-x="1343" d="M551 1360l416 360l186 -235l-487 -283zM102 1051v-588q0 -262 136.5 -378t433.5 -116t433 116t136 378v588h-362v-500q0 -156 -47 -221.5t-160 -65.5t-160 65.5t-47 221.5v500h-363z" />
<glyph unicode="&#xfb;" horiz-adv-x="1343" d="M219 1389l453 331l452 -331l-139 -187l-313 230l-314 -230zM102 1051v-588q0 -262 136.5 -378t433.5 -116t433 116t136 378v588h-362v-500q0 -156 -47 -221.5t-160 -65.5t-160 65.5t-47 221.5v500h-363z" />
<glyph unicode="&#xfc;" horiz-adv-x="1343" d="M428 1620q78 0 133 -55t55 -133t-55 -133.5t-133 -55.5t-133 55.5t-55 133.5t55 133t133 55zM913 1620q78 0 133.5 -55t55.5 -133t-55.5 -133.5t-133.5 -55.5t-133 55.5t-55 133.5t55 133t133 55zM102 1051v-588q0 -262 136.5 -378t433.5 -116t433 116t136 378v588h-362 v-500q0 -156 -47 -221.5t-160 -65.5t-160 65.5t-47 221.5v500h-363z" />
<glyph unicode="&#xfd;" horiz-adv-x="1296" d="M449 1360l415 360l187 -235l-488 -283zM920 1051h417l-825 -1583h-418l363 696l-498 887h418l293 -539z" />
<glyph unicode="&#xfe;" d="M1352 524q0 -153 -66 -279.5t-186.5 -201t-270.5 -74.5q-103 0 -193 41t-151 109h-4v-651h-358v2293h362v-811q134 131 344 131q150 0 270.5 -75t186.5 -202t66 -280zM967 524q0 108 -71 178t-175 70q-103 0 -173.5 -70.5t-70.5 -177.5t69 -176t175 -69q110 0 178 68.5 t68 176.5z" />
<glyph unicode="&#xff;" horiz-adv-x="1296" d="M406 1620q78 0 133 -55t55 -133t-55 -133.5t-133 -55.5t-133.5 55.5t-55.5 133.5t55.5 133t133.5 55zM891 1620q78 0 133 -55t55 -133t-55 -133.5t-133 -55.5t-133.5 55.5t-55.5 133.5t55.5 133t133.5 55zM920 1051h417l-825 -1583h-418l363 696l-498 887h418l293 -539z " />
<glyph unicode="&#x100;" horiz-adv-x="1605" d="M385 2183h836v-246h-836v246zM981 1690l682 -1690h-414l-125 338h-643l-125 -338h-413l682 1690h356zM993 676l-188 491h-4l-189 -491h381z" />
<glyph unicode="&#x101;" d="M281 1544h835v-246h-835v246zM47 524q0 -114 39 -216t106.5 -177t165.5 -118.5t211 -43.5q103 0 193 41t151 109h5v-119h358v1051h-363v-101q-134 131 -344 131q-113 0 -211 -44t-165.5 -119t-106.5 -177.5t-39 -216.5zM432 524q0 108 71 178t175 70q103 0 173.5 -70.5 t70.5 -177.5t-69 -176t-175 -69q-110 0 -178 68.5t-68 176.5z" />
<glyph unicode="&#x102;" horiz-adv-x="1605" d="M1018 2359l258 -63q-19 -166 -148 -268.5t-325 -102.5t-325 102.5t-148 268.5l258 63q1 -9 3.5 -23t17 -50.5t35.5 -64t63 -50.5t96 -23t96 21.5t63.5 53t35 62.5t16.5 53zM981 1690l682 -1690h-414l-125 338h-643l-125 -338h-413l682 1690h356zM993 676l-188 491h-4 l-189 -491h381z" />
<glyph unicode="&#x103;" d="M913 1720l258 -63q-19 -166 -148 -268.5t-325 -102.5t-325 102.5t-148 268.5l258 63q1 -9 3.5 -23t17 -50.5t35.5 -64t63 -50.5t96 -23q39 0 72.5 11.5t55 30t38 41t25.5 45.5t15 41.5t8 29.5zM47 524q0 114 39 216.5t106.5 177.5t165.5 119t211 44q210 0 344 -131v101 h363v-1051h-358v119h-5q-61 -68 -151 -109t-193 -41q-113 0 -211 43.5t-165.5 118.5t-106.5 177t-39 216zM432 524q0 -108 68 -176.5t178 -68.5q106 0 175 69t69 176t-70.5 177.5t-173.5 70.5q-104 0 -175 -70t-71 -178z" />
<glyph unicode="&#x104;" horiz-adv-x="1605" d="M1124 -324q0 125 164 324h-39l-125 338h-643l-125 -338h-413l682 1690h356l682 -1690h-207q-5 -6 -13 -16.5t-29 -43t-37 -65t-29 -77.5t-13 -85q0 -36 23.5 -58t52.5 -22q28 0 54.5 15.5t38.5 31.5l12 15l147 -111q-4 -6 -11.5 -16t-33.5 -35t-56 -44.5t-78.5 -35.5 t-101.5 -16q-43 0 -85.5 13t-82.5 39.5t-65 75t-25 111.5zM993 676l-188 491h-4l-189 -491h381z" />
<glyph unicode="&#x105;" d="M754 -324q0 130 164 324v119h-5q-61 -68 -151 -109t-193 -41q-113 0 -211 43.5t-165.5 118.5t-106.5 177t-39 216t39 216.5t106.5 177.5t165.5 119t211 44q210 0 344 -131v101h363v-1051h-191q-5 -6 -13 -16.5t-28.5 -43t-36.5 -65t-29 -77.5t-13 -85q0 -36 23 -58 t52 -22q28 0 54 15.5t38 31.5l13 15l147 -111q-4 -6 -11 -16t-33 -35t-56 -44.5t-78.5 -35.5t-101.5 -16q-43 0 -85.5 13t-82.5 39.5t-65 75t-25 111.5zM432 524q0 -108 68 -176.5t178 -68.5q106 0 175 69t69 176t-70.5 177.5t-173.5 70.5q-104 0 -175 -70t-71 -178z" />
<glyph unicode="&#x106;" horiz-adv-x="1542" d="M555 1999l416 360l186 -235l-487 -283zM1022 348q-112 0 -206 30t-157.5 80t-108 115t-65 134t-20.5 139q0 69 20.5 138t65 133.5t108 114t157.5 79.5t206 30q55 0 109.5 -10.5t93 -26t69 -31t45.5 -25.5l15 -11l164 328q-8 6 -22.5 16.5t-67 37.5t-111.5 47t-155 37 t-199 17q-142 0 -279 -44t-251 -125.5t-201 -189t-136 -242.5t-49 -277t49 -276t136.5 -240.5t201.5 -187.5t251 -125t278 -44q103 0 198 16t157 39t109.5 46t68.5 39l22 16l-164 328q-6 -4 -16 -11t-44 -25.5t-70 -32t-91.5 -25t-110.5 -11.5z" />
<glyph unicode="&#x107;" horiz-adv-x="1005" d="M391 1360l416 360l186 -235l-487 -283zM682 784q-103 0 -176.5 -75.5t-73.5 -182.5q0 -108 73.5 -184t176.5 -76q48 0 92 12t64 24l20 13l123 -252q-5 -4 -14.5 -10t-42.5 -22.5t-70.5 -29t-98.5 -22.5t-126 -10q-150 0 -284 73.5t-216 201.5t-82 278q0 151 81.5 280.5 t215.5 204t285 74.5q65 0 125.5 -10t100 -24.5t69.5 -29t44 -24.5l13 -10l-123 -248q-8 5 -22 13.5t-60 22t-94 13.5z" />
<glyph unicode="&#x10c;" horiz-adv-x="1542" d="M590 2359l313 -229l314 229l139 -186l-453 -332l-452 332zM1022 348q-112 0 -206 30t-157.5 80t-108 115t-65 134t-20.5 139q0 69 20.5 138t65 133.5t108 114t157.5 79.5t206 30q55 0 109.5 -10.5t93 -26t69 -31t45.5 -25.5l15 -11l164 328q-8 6 -22.5 16.5t-67 37.5 t-111.5 47t-155 37t-199 17q-142 0 -279 -44t-251 -125.5t-201 -189t-136 -242.5t-49 -277t49 -276t136.5 -240.5t201.5 -187.5t251 -125t278 -44q103 0 198 16t157 39t109.5 46t68.5 39l22 16l-164 328q-6 -4 -16 -11t-44 -25.5t-70 -32t-91.5 -25t-110.5 -11.5z" />
<glyph unicode="&#x10d;" horiz-adv-x="1005" d="M213 1720l313 -229l314 229l139 -186l-453 -332l-452 332zM682 784q-103 0 -176.5 -75.5t-73.5 -182.5q0 -108 73.5 -184t176.5 -76q48 0 92 12t64 24l20 13l123 -252q-5 -4 -14.5 -10t-42.5 -22.5t-70.5 -29t-98.5 -22.5t-126 -10q-150 0 -284 73.5t-216 201.5t-82 278 q0 151 81.5 280.5t215.5 204t285 74.5q65 0 125.5 -10t100 -24.5t69.5 -29t44 -24.5l13 -10l-123 -248q-8 5 -22 13.5t-60 22t-94 13.5z" />
<glyph unicode="&#x10e;" horiz-adv-x="1511" d="M424 2359l313 -229l314 229l139 -186l-453 -332l-452 332zM123 1690h489q172 0 328 -63.5t271.5 -173.5t184 -268.5t68.5 -338.5q0 -181 -68 -340t-183.5 -269t-271.5 -173.5t-329 -63.5h-489v1690zM508 344h59q211 0 345.5 142.5t136.5 357.5q0 141 -60 255 t-170.5 180.5t-251.5 66.5h-59v-1002z" />
<glyph unicode="&#x10f;" d="M47 524q0 114 39 216.5t106.5 177.5t165.5 119t211 44q210 0 344 -131v811h363v-1761h-358v119h-5q-61 -68 -151 -109t-193 -41q-113 0 -211 43.5t-165.5 118.5t-106.5 177t-39 216zM1548 1688q76 0 130.5 -54t54.5 -131q0 -233 -267 -452l-82 63q4 4 10.5 11t24.5 30 t33 47.5t30.5 62t22.5 74.5q-60 14 -98.5 59t-38.5 105q0 76 53 130.5t127 54.5zM432 524q0 -108 68 -176.5t178 -68.5q106 0 175 69t69 176t-70.5 177.5t-173.5 70.5q-104 0 -175 -70t-71 -178z" />
<glyph unicode="&#x110;" horiz-adv-x="1589" d="M201 1001v689h489q172 0 328 -63.5t271.5 -173.5t184 -268.5t68.5 -338.5q0 -181 -68 -340t-183.5 -269t-271.5 -173.5t-329 -63.5h-489v688h-168v313h168zM586 1001h223v-313h-223v-344h59q211 0 345 142.5t136 357.5q0 215 -134.5 358.5t-346.5 143.5h-59v-345z" />
<glyph unicode="&#x111;" d="M657 1520h256v241h363v-241h123v-234h-123v-1286h-358v119h-5q-61 -68 -151 -109t-193 -41q-113 0 -211 43.5t-165.5 118.5t-106.5 177t-39 216t39 216.5t106.5 177.5t165.5 119t211 44q210 0 344 -131v336h-256v234zM432 524q0 -108 68 -176.5t178 -68.5q106 0 175 69 t69 176t-70.5 177.5t-173.5 70.5q-104 0 -175 -70t-71 -178z" />
<glyph unicode="&#x112;" horiz-adv-x="1187" d="M176 2183h836v-246h-836v246zM1090 1690v-338h-582v-336h557v-338h-557v-340h582v-338h-967v1690h967z" />
<glyph unicode="&#x113;" horiz-adv-x="1234" d="M199 1544h835v-246h-835v246zM1186 475h-762q0 -58 22 -102t57.5 -68t73 -35.5t74.5 -11.5q88 0 139 23.5t117 93.5l262 -131q-164 -275 -544 -275q-156 0 -289 74.5t-211 202.5t-78 278q0 151 78 279.5t211 203t289 74.5q121 0 223 -35.5t178 -104t119 -175.5t43 -242 q0 -37 -2 -49zM434 676h400q-12 82 -65 126t-134 44q-91 0 -143.5 -47.5t-57.5 -122.5z" />
<glyph unicode="&#x116;" horiz-adv-x="1187" d="M594 2259q78 0 133 -55t55 -133t-55 -133.5t-133 -55.5t-133 55.5t-55 133.5t55 133t133 55zM1090 1690v-338h-582v-336h557v-338h-557v-340h582v-338h-967v1690h967z" />
<glyph unicode="&#x117;" horiz-adv-x="1234" d="M616 1620q78 0 133.5 -55t55.5 -133t-55.5 -133.5t-133.5 -55.5t-133 55.5t-55 133.5t55 133t133 55zM1186 475h-762q0 -58 22 -102t57.5 -68t73 -35.5t74.5 -11.5q88 0 139 23.5t117 93.5l262 -131q-164 -275 -544 -275q-156 0 -289 74.5t-211 202.5t-78 278 q0 151 78 279.5t211 203t289 74.5q121 0 223 -35.5t178 -104t119 -175.5t43 -242q0 -37 -2 -49zM434 676h400q-12 82 -65 126t-134 44q-91 0 -143.5 -47.5t-57.5 -122.5z" />
<glyph unicode="&#x118;" horiz-adv-x="1187" d="M1090 1690v-338h-582v-336h557v-338h-557v-340h582v-338h-199q-5 -6 -13 -16.5t-29 -43t-37 -65t-29 -77.5t-13 -85q0 -36 23.5 -58t52.5 -22q28 0 54 15.5t38 31.5l12 15l148 -111q-4 -6 -11.5 -16t-33.5 -35t-56 -44.5t-78.5 -35.5t-101.5 -16q-43 0 -85.5 13 t-82.5 39.5t-65 75t-25 111.5q0 125 164 324h-600v1690h967z" />
<glyph unicode="&#x119;" horiz-adv-x="1234" d="M1186 475h-762q0 -58 22 -102t57.5 -68t73 -35.5t74.5 -11.5q88 0 139 23.5t117 93.5l262 -131q-111 -183 -313 -244q-5 -6 -13 -16.5t-29 -43t-37 -65t-29 -77.5t-13 -85q0 -36 23.5 -58t52.5 -22q28 0 54 15.5t38 31.5l12 15l148 -111q-4 -6 -11.5 -16t-33.5 -35 t-56 -44.5t-78.5 -35.5t-101.5 -16q-43 0 -85.5 13t-82.5 39.5t-65 75t-25 111.5q0 116 140 295q-6 0 -19.5 -1t-19.5 -1q-156 0 -289 74.5t-211 202.5t-78 278q0 151 78 279.5t211 203t289 74.5q121 0 223 -35.5t178 -104t119 -175.5t43 -242q0 -37 -2 -49zM434 676h400 q-12 82 -65 126t-134 44q-91 0 -143.5 -47.5t-57.5 -122.5z" />
<glyph unicode="&#x11a;" horiz-adv-x="1187" d="M281 2359l313 -229l313 229l140 -186l-453 -332l-453 332zM1090 1690v-338h-582v-336h557v-338h-557v-340h582v-338h-967v1690h967z" />
<glyph unicode="&#x11b;" horiz-adv-x="1234" d="M303 1720l313 -229l314 229l139 -186l-453 -332l-452 332zM1186 475h-762q0 -58 22 -102t57.5 -68t73 -35.5t74.5 -11.5q88 0 139 23.5t117 93.5l262 -131q-164 -275 -544 -275q-156 0 -289 74.5t-211 202.5t-78 278q0 151 78 279.5t211 203t289 74.5q121 0 223 -35.5 t178 -104t119 -175.5t43 -242q0 -37 -2 -49zM434 676h400q-12 82 -65 126t-134 44q-91 0 -143.5 -47.5t-57.5 -122.5z" />
<glyph unicode="&#x122;" horiz-adv-x="1697" d="M1651 946v-366q-27 -125 -85 -227.5t-134 -173t-170 -118.5t-192 -70t-200 -22q-168 0 -320 69.5t-262.5 186.5t-175.5 279t-65 340q0 180 62.5 341.5t170.5 279t261.5 186.5t328.5 69q414 0 652 -288l-252 -277q-135 217 -377 217q-117 0 -216 -70.5t-156.5 -192 t-57.5 -265.5q0 -215 126 -367.5t304 -152.5q94 0 176.5 37t136.5 113t54 175h-390v297h781zM846 -82q-74 0 -127 -54t-53 -130q0 -60 38.5 -105t98.5 -59q-11 -59 -41.5 -115.5t-55.5 -82.5l-24 -27l82 -64q266 219 266 453q0 76 -54 130t-130 54z" />
<glyph unicode="&#x123;" d="M700 1243q-76 0 -130 53.5t-54 130.5q0 234 266 453l82 -63q-11 -10 -27.5 -29.5t-49.5 -78.5t-44 -118q60 -14 99 -59t39 -105q0 -76 -53.5 -130t-127.5 -54zM76 -258l297 145q35 -56 105.5 -95.5t178.5 -39.5q32 0 65 7.5t68 26t62 45.5t44 70.5t17 96.5v78 q-55 -60 -140 -83.5t-204 -23.5q-113 0 -211 43.5t-165.5 118.5t-106.5 177t-39 216t39 216.5t106.5 177.5t165.5 119t211 44q204 0 338 -125h6v95h363v-1080q0 -172 -81 -294t-218.5 -181t-319.5 -59q-449 0 -581 305zM432 524q0 -108 68 -176.5t178 -68.5q106 0 175 69 t69 176t-70.5 177.5t-173.5 70.5q-104 0 -175 -70t-71 -178z" />
<glyph unicode="&#x12a;" horiz-adv-x="630" d="M-102 2183h835v-246h-835v246zM508 1690v-1690h-385v1690h385z" />
<glyph unicode="&#x12b;" horiz-adv-x="608" d="M-113 1544h836v-246h-836v246zM123 1051v-1051h362v1051h-362z" />
<glyph unicode="&#x12e;" horiz-adv-x="630" d="M508 1690v-1690h-109q-5 -6 -13 -16.5t-28.5 -43t-36.5 -65t-29 -77.5t-13 -85q0 -36 23 -58t52 -22q28 0 54 15.5t38 31.5l13 15l147 -111q-4 -6 -11 -16t-33 -35t-56 -44.5t-78.5 -35.5t-101.5 -16q-43 0 -85.5 13t-82.5 39.5t-65 75t-25 111.5q0 126 163 324h-108 v1690h385z" />
<glyph unicode="&#x12f;" horiz-adv-x="608" d="M309 1700q89 0 152 -63t63 -152t-63 -152t-152 -63t-152 63t-63 152t63 152t152 63zM59 -324q0 -63 25 -111.5t65 -75t82.5 -39.5t85.5 -13q53 0 101 15t79.5 36.5t55.5 43.5t35 37l10 15l-147 111q-5 -7 -13.5 -17.5t-36 -27.5t-55.5 -17q-29 0 -52.5 22t-23.5 58 q0 40 12.5 84.5t30 79t35.5 63.5t30 44l13 16h94v1051h-362v-1051h100q-164 -194 -164 -324z" />
<glyph unicode="&#x131;" horiz-adv-x="550" d="M94 0v1051h363v-1051h-363z" />
<glyph unicode="&#x136;" horiz-adv-x="1611" d="M1661 0h-531l-622 717v-717h-385v1690h385v-691l579 691h467l-680 -801zM803 -82q-74 0 -127 -54t-53 -130q0 -60 38.5 -105t98.5 -59q-11 -59 -41.5 -115.5t-54.5 -82.5l-25 -27l82 -64q266 219 266 453q0 76 -53.5 130t-130.5 54z" />
<glyph unicode="&#x137;" horiz-adv-x="1323" d="M1323 1051l-500 -502l549 -549h-467l-420 420v-420h-362v1761h362v-1077l367 367h471zM659 -82q77 0 131 -54t54 -130q0 -234 -266 -453l-82 64q4 4 10.5 11t24 30t32.5 47.5t30.5 62t22.5 74.5q-60 14 -98.5 59t-38.5 105q0 76 53 130t127 54z" />
<glyph unicode="&#x139;" horiz-adv-x="1157" d="M279 1999l415 360l187 -235l-488 -283zM508 1690v-1352h582v-338h-967v1690h385z" />
<glyph unicode="&#x13a;" horiz-adv-x="608" d="M123 2071l416 360l186 -236l-487 -282zM123 1761v-1761h362v1761h-362z" />
<glyph unicode="&#x13b;" horiz-adv-x="1157" d="M508 1690v-1352h582v-338h-967v1690h385zM575 -82q-74 0 -127 -54t-53 -130q0 -60 38.5 -105t98.5 -59q-7 -37 -22 -74t-31.5 -63t-31.5 -46.5t-25 -30.5l-10 -11l82 -64q266 219 266 453q0 76 -54 130t-131 54z" />
<glyph unicode="&#x13c;" horiz-adv-x="608" d="M123 0v1761h362v-1761h-362zM301 -82q77 0 130.5 -54t53.5 -130q0 -234 -266 -453l-82 64q4 4 10.5 11t24.5 30t33 47.5t30.5 62t22.5 74.5q-60 14 -98.5 59t-38.5 105q0 76 53 130t127 54z" />
<glyph unicode="&#x13d;" horiz-adv-x="1157" d="M508 1690v-1352h582v-338h-967v1690h385zM854 1688q-74 0 -127 -54.5t-53 -130.5q0 -60 38.5 -105t98.5 -59q-11 -59 -41.5 -115.5t-55.5 -83.5l-24 -26l82 -63q266 219 266 452q0 77 -54 131t-130 54z" />
<glyph unicode="&#x13e;" horiz-adv-x="608" d="M123 0v1761h362v-1761h-362zM758 1688q76 0 130 -54t54 -131q0 -233 -266 -452l-82 63q4 4 10.5 11t24.5 30t33 47.5t30.5 62t22.5 74.5q-60 14 -98.5 59t-38.5 105q0 76 53 130.5t127 54.5z" />
<glyph unicode="&#x141;" horiz-adv-x="1163" d="M41 512v313l156 121v744h385v-441l215 170v-313l-215 -170v-598h581v-338h-966v633z" />
<glyph unicode="&#x142;" horiz-adv-x="755" d="M197 0v635l-156 -123v313l156 123v813h362v-528l156 123v-314l-156 -122v-920h-362z" />
<glyph unicode="&#x143;" horiz-adv-x="1691" d="M545 1999l416 360l186 -235l-488 -283zM508 1049v-1049h-385v1690h385l672 -1049h4v1049h385v-1690h-385l-672 1049h-4z" />
<glyph unicode="&#x144;" horiz-adv-x="1353" d="M555 1360l416 360l186 -235l-487 -283zM485 0v594q0 78 66.5 141.5t148.5 63.5q84 0 136.5 -61.5t52.5 -143.5v-594h362v692q0 84 -29.5 152.5t-76.5 111.5t-109 72t-123 41t-122 12q-161 0 -302 -141h-4v111h-362v-1051h362z" />
<glyph unicode="&#x145;" horiz-adv-x="1691" d="M508 1049v-1049h-385v1690h385l672 -1049h4v1049h385v-1690h-385l-672 1049h-4zM844 -82q-74 0 -127 -54t-53 -130q0 -60 38.5 -105t98.5 -59q-11 -59 -41.5 -115.5t-55.5 -82.5l-24 -27l82 -64q266 219 266 453q0 76 -54 130t-130 54z" />
<glyph unicode="&#x146;" horiz-adv-x="1353" d="M123 0v1051h362v-111h4q141 141 302 141q61 0 122 -12t123 -41t109 -72t76.5 -111.5t29.5 -152.5v-692h-362v594q0 82 -52.5 143.5t-136.5 61.5q-82 0 -148.5 -63.5t-66.5 -141.5v-594h-362zM674 -82q76 0 130 -54t54 -130q0 -234 -266 -453l-82 64q4 4 10.5 11t24.5 30 t33 47.5t30.5 62t22.5 74.5q-60 14 -98.5 59t-38.5 105q0 76 53 130t127 54z" />
<glyph unicode="&#x147;" horiz-adv-x="1691" d="M532 2359l314 -229l313 229l139 -186l-452 -332l-453 332zM508 1049v-1049h-385v1690h385l672 -1049h4v1049h385v-1690h-385l-672 1049h-4z" />
<glyph unicode="&#x148;" horiz-adv-x="1353" d="M362 1720l314 -229l313 229l139 -186l-452 -332l-453 332zM485 0v594q0 78 66.5 141.5t148.5 63.5q84 0 136.5 -61.5t52.5 -143.5v-594h362v692q0 84 -29.5 152.5t-76.5 111.5t-109 72t-123 41t-122 12q-161 0 -302 -141h-4v111h-362v-1051h362z" />
<glyph unicode="&#x14c;" horiz-adv-x="1796" d="M479 2183h836v-246h-836v246zM47 846q0 182 68 344.5t183 278.5t272 183.5t329 67.5q173 0 330 -67.5t271 -183.5t181.5 -278.5t67.5 -344.5q0 -183 -65 -345t-177.5 -279t-270.5 -185t-337 -68q-184 0 -343.5 68t-270.5 185t-174.5 279t-63.5 345zM463 846 q0 -78 15 -149.5t48.5 -136.5t83 -113t123.5 -76.5t166 -28.5q111 0 196.5 42.5t136 115.5t76 160.5t25.5 185.5q0 77 -16 149t-51 137t-85 113t-122.5 76.5t-159.5 28.5q-107 0 -192.5 -43t-137.5 -115t-79 -160.5t-27 -185.5z" />
<glyph unicode="&#x14d;" horiz-adv-x="1353" d="M258 1544h836v-246h-836v246zM47 524q0 -244 175 -399.5t458 -155.5q272 0 449.5 156.5t177.5 398.5q0 160 -84 288.5t-227 198.5t-316 70q-131 0 -248 -41.5t-201.5 -114t-134 -176.5t-49.5 -225zM432 524q0 108 71 178t175 70q103 0 173.5 -70.5t70.5 -177.5t-69 -176 t-175 -69q-110 0 -178 68.5t-68 176.5z" />
<glyph unicode="&#x150;" horiz-adv-x="1796" d="M473 1999l354 401l168 -213l-407 -346zM905 1999l355 401l167 -213l-407 -346zM47 846q0 182 68 344.5t183 278.5t272 183.5t329 67.5q173 0 330 -67.5t271 -183.5t181.5 -278.5t67.5 -344.5q0 -183 -65 -345t-177.5 -279t-270.5 -185t-337 -68q-184 0 -343.5 68 t-270.5 185t-174.5 279t-63.5 345zM463 846q0 -78 15 -149.5t48.5 -136.5t83 -113t123.5 -76.5t166 -28.5q111 0 196.5 42.5t136 115.5t76 160.5t25.5 185.5q0 77 -16 149t-51 137t-85 113t-122.5 76.5t-159.5 28.5q-107 0 -192.5 -43t-137.5 -115t-79 -160.5t-27 -185.5z " />
<glyph unicode="&#x151;" horiz-adv-x="1353" d="M252 1360l354 401l168 -213l-407 -346zM684 1360l354 401l168 -213l-407 -346zM47 524q0 -244 175 -399.5t458 -155.5q272 0 449.5 156.5t177.5 398.5q0 160 -84 288.5t-227 198.5t-316 70q-131 0 -248 -41.5t-201.5 -114t-134 -176.5t-49.5 -225zM432 524q0 108 71 178 t175 70q103 0 173.5 -70.5t70.5 -177.5t-69 -176t-175 -69q-110 0 -178 68.5t-68 176.5z" />
<glyph unicode="&#x152;" horiz-adv-x="2068" d="M1389 1352v-336h557v-338h-557v-340h581v-338h-1071q-173 0 -329 63t-271.5 173t-183.5 268.5t-68 339.5t68 340t183.5 269t271.5 173.5t329 63.5h1071v-338h-581zM1004 1346h-60q-212 0 -346.5 -143t-134.5 -357q0 -215 134.5 -358.5t346.5 -143.5h60v1002z" />
<glyph unicode="&#x153;" horiz-adv-x="2091" d="M2042 475h-762q0 -58 22 -102t57.5 -68t73 -35.5t74.5 -11.5q88 0 139 23.5t117 93.5l262 -131q-164 -275 -544 -275q-69 0 -137 17t-115.5 41.5t-85.5 49t-57 41.5l-19 17q-6 -7 -17 -18t-49 -39.5t-80.5 -50.5t-111 -40t-141.5 -18q-281 0 -451 154.5t-170 400.5 q0 121 47.5 225t130 176.5t197.5 114t246 41.5q71 0 137.5 -17.5t111.5 -42t80 -49t51 -42.5l17 -17q6 7 18 18t52.5 40t85 51.5t115.5 40.5t145 18q121 0 223 -35.5t178 -104t119 -175.5t43 -242q0 -37 -2 -49zM1290 676h400q-12 82 -65 126t-134 44q-91 0 -143.5 -47.5 t-57.5 -122.5zM426 524q0 -108 68 -176.5t178 -68.5q106 0 174.5 69t68.5 176q0 108 -70.5 178t-172.5 70q-104 0 -175 -70t-71 -178z" />
<glyph unicode="&#x154;" horiz-adv-x="1466" d="M432 1999l416 360l186 -235l-487 -283zM123 1690h604q118 0 218 -32t174.5 -94t116.5 -158t42 -218q0 -186 -93 -312.5t-253 -177.5l581 -698h-489l-516 668v-668h-385v1690zM508 940h45q54 0 90 2.5t83.5 15t76 34.5t49 65t20.5 104t-20.5 104t-49 65t-76 34.5t-83.5 15 t-90 2.5h-45v-442z" />
<glyph unicode="&#x155;" horiz-adv-x="1019" d="M307 1360l416 360l186 -235l-487 -283zM485 0v553q0 12 4 33t18 53.5t36 59.5t63 47t94 20q54 0 101 -14t67 -28l21 -15l151 307q-11 7 -30 18t-79 29t-120 18q-58 0 -112.5 -18.5t-91 -45.5t-64.5 -54t-41 -45l-13 -19h-4v152h-362v-1051h362z" />
<glyph unicode="&#x156;" horiz-adv-x="1466" d="M123 1690h604q118 0 218 -32t174.5 -94t116.5 -158t42 -218q0 -186 -93 -312.5t-253 -177.5l581 -698h-489l-516 668v-668h-385v1690zM508 940h45q54 0 90 2.5t83.5 15t76 34.5t49 65t20.5 104t-20.5 104t-49 65t-76 34.5t-83.5 15t-90 2.5h-45v-442zM731 -82 q-74 0 -127 -54t-53 -130q0 -60 38.5 -105t98.5 -59q-11 -59 -41.5 -115.5t-54.5 -82.5l-25 -27l82 -64q266 219 266 453q0 76 -53.5 130t-130.5 54z" />
<glyph unicode="&#x157;" horiz-adv-x="1019" d="M123 0v1051h362v-152h4q5 7 14 19.5t40 44t65.5 55.5t89.5 43.5t113 19.5q60 0 117 -16.5t84 -32.5l28 -16l-151 -307q-8 6 -22.5 15.5t-63.5 25.5t-103 16q-53 0 -94 -20t-63 -47t-36 -59.5t-18 -53.5t-4 -33v-553h-362zM303 -82q77 0 130.5 -54t53.5 -130 q0 -234 -266 -453l-82 64q4 4 10.5 11t24.5 30t33 47.5t30.5 62t22.5 74.5q-60 14 -98.5 59t-38.5 105q0 76 53 130t127 54z" />
<glyph unicode="&#x158;" horiz-adv-x="1466" d="M350 2359l314 -229l313 229l139 -186l-452 -332l-453 332zM123 1690h604q118 0 218 -32t174.5 -94t116.5 -158t42 -218q0 -186 -93 -312.5t-253 -177.5l581 -698h-489l-516 668v-668h-385v1690zM508 940h45q54 0 90 2.5t83.5 15t76 34.5t49 65t20.5 104t-20.5 104t-49 65 t-76 34.5t-83.5 15t-90 2.5h-45v-442z" />
<glyph unicode="&#x159;" horiz-adv-x="1019" d="M197 1720l313 -229l313 229l140 -186l-453 -332l-453 332zM485 0v553q0 12 4 33t18 53.5t36 59.5t63 47t94 20q54 0 101 -14t67 -28l21 -15l151 307q-11 7 -30 18t-79 29t-120 18q-58 0 -112.5 -18.5t-91 -45.5t-64.5 -54t-41 -45l-13 -19h-4v152h-362v-1051h362z" />
<glyph unicode="&#x15a;" horiz-adv-x="1376" d="M387 1999l416 360l186 -235l-487 -283zM745 1720q86 0 171.5 -16.5t146.5 -40t109.5 -46.5t73.5 -39l24 -17l-156 -308q-7 5 -19.5 13t-50.5 28t-76.5 35.5t-92.5 28t-103 12.5q-97 0 -149 -40.5t-52 -110.5q0 -17 6.5 -33.5t22.5 -33t31 -30t45 -30.5t51 -28.5 t61.5 -29.5t64 -28.5t71.5 -30.5q75 -32 142 -75.5t125.5 -101t93 -131.5t34.5 -153q0 -117 -35 -211t-94 -155.5t-141.5 -102.5t-173 -58.5t-193.5 -17.5q-111 0 -217 23t-178.5 56t-129 66t-83.5 56l-27 23l193 323q9 -8 25.5 -20.5t65.5 -45.5t96 -58t110 -45.5 t116 -20.5q33 0 58.5 2t63 11.5t62 26t42.5 49t18 77.5q0 30 -15.5 57t-37 47t-64 44.5t-75.5 40t-92.5 43.5t-96.5 46q-153 75 -237 188.5t-84 245.5q0 151 81.5 271.5t206 182.5t262.5 62z" />
<glyph unicode="&#x15b;" horiz-adv-x="1007" d="M285 1360l415 360l187 -235l-488 -283zM580 1081q90 0 178 -20.5t131 -40.5l43 -21l-119 -237q-14 7 -37 18t-85 29t-111 18q-62 0 -87.5 -13.5t-25.5 -49.5q0 -9 2.5 -17t8.5 -14.5t11.5 -12t16.5 -11.5t19 -9.5t23.5 -9t25 -8.5l28.5 -9t29 -9q49 -15 87.5 -30.5 t84 -44t76 -62.5t51 -85.5t20.5 -113.5q0 -359 -497 -359q-71 0 -139 14.5t-114.5 35.5t-82.5 42t-53 35l-17 15l148 247q6 -5 16 -13t41 -28.5t61 -36.5t69.5 -29t72.5 -13q32 0 53 3.5t40 21t19 50.5q0 34 -28 54t-97.5 45.5t-107.5 44.5q-46 24 -79 46.5t-66 56.5 t-50.5 80t-17.5 103q0 159 124.5 248.5t334.5 89.5z" />
<glyph unicode="&#x160;" horiz-adv-x="1376" d="M375 2359l313 -229l313 229l140 -186l-453 -332l-452 332zM745 1720q86 0 171.5 -16.5t146.5 -40t109.5 -46.5t73.5 -39l24 -17l-156 -308q-7 5 -19.5 13t-50.5 28t-76.5 35.5t-92.5 28t-103 12.5q-97 0 -149 -40.5t-52 -110.5q0 -17 6.5 -33.5t22.5 -33t31 -30t45 -30.5 t51 -28.5t61.5 -29.5t64 -28.5t71.5 -30.5q75 -32 142 -75.5t125.5 -101t93 -131.5t34.5 -153q0 -117 -35 -211t-94 -155.5t-141.5 -102.5t-173 -58.5t-193.5 -17.5q-111 0 -217 23t-178.5 56t-129 66t-83.5 56l-27 23l193 323q9 -8 25.5 -20.5t65.5 -45.5t96 -58t110 -45.5 t116 -20.5q33 0 58.5 2t63 11.5t62 26t42.5 49t18 77.5q0 30 -15.5 57t-37 47t-64 44.5t-75.5 40t-92.5 43.5t-96.5 46q-153 75 -237 188.5t-84 245.5q0 151 81.5 271.5t206 182.5t262.5 62z" />
<glyph unicode="&#x161;" horiz-adv-x="1007" d="M190 1720l314 -229l313 229l139 -186l-452 -332l-453 332zM580 1081q90 0 178 -20.5t131 -40.5l43 -21l-119 -237q-14 7 -37 18t-85 29t-111 18q-62 0 -87.5 -13.5t-25.5 -49.5q0 -9 2.5 -17t8.5 -14.5t11.5 -12t16.5 -11.5t19 -9.5t23.5 -9t25 -8.5l28.5 -9t29 -9 q49 -15 87.5 -30.5t84 -44t76 -62.5t51 -85.5t20.5 -113.5q0 -359 -497 -359q-71 0 -139 14.5t-114.5 35.5t-82.5 42t-53 35l-17 15l148 247q6 -5 16 -13t41 -28.5t61 -36.5t69.5 -29t72.5 -13q32 0 53 3.5t40 21t19 50.5q0 34 -28 54t-97.5 45.5t-107.5 44.5 q-46 24 -79 46.5t-66 56.5t-50.5 80t-17.5 103q0 159 124.5 248.5t334.5 89.5z" />
<glyph unicode="&#x164;" horiz-adv-x="1220" d="M297 2359l313 -229l314 229l139 -186l-453 -332l-452 332zM16 1352v338h1188v-338h-401v-1352h-385v1352h-402z" />
<glyph unicode="&#x165;" horiz-adv-x="892" d="M975 1688q76 0 130 -54t54 -131q0 -233 -266 -452l-82 63q4 4 10.5 11t24.5 30t33 47.5t30.5 62t22.5 74.5q-60 14 -98.5 59t-38.5 105q0 76 53 130.5t127 54.5zM184 1051v391h363v-391h221v-277h-221v-334q0 -145 82 -145q21 0 43.5 8.5t34.5 16.5l12 8l90 -293 q-13 -7 -36.5 -18t-93 -29.5t-136.5 -18.5q-83 0 -148 24.5t-104 63t-63.5 93t-34 108t-9.5 113.5v403h-151v277h151z" />
<glyph unicode="&#x16a;" horiz-adv-x="1523" d="M344 2183h836v-246h-836v246zM1036 1690v-977q0 -140 -30 -220.5t-88 -112.5t-156 -32t-156 32t-88.5 112.5t-30.5 220.5v977h-385v-1090q0 -312 168 -471.5t492 -159.5t491.5 159.5t167.5 471.5v1090h-385z" />
<glyph unicode="&#x16b;" horiz-adv-x="1343" d="M254 1544h836v-246h-836v246zM102 1051v-588q0 -262 136.5 -378t433.5 -116t433 116t136 378v588h-362v-500q0 -156 -47 -221.5t-160 -65.5t-160 65.5t-47 221.5v500h-363z" />
<glyph unicode="&#x16e;" horiz-adv-x="1523" d="M432 2140q0 126 95 208.5t235 82.5q141 0 235.5 -82.5t94.5 -208.5q0 -129 -92.5 -211t-237.5 -82q-147 0 -238.5 81.5t-91.5 211.5zM637 2140q0 -55 35 -93t90 -38q53 0 89 38t36 93q0 53 -36.5 90t-88.5 37q-51 0 -88 -37.5t-37 -89.5zM1421 1690v-1090 q0 -312 -167.5 -471.5t-491.5 -159.5t-492 159.5t-168 471.5v1090h385v-977q0 -140 30.5 -220.5t88.5 -112.5t156 -32t156 32t88 112.5t30 220.5v977h385z" />
<glyph unicode="&#x16f;" horiz-adv-x="1343" d="M342 1501q0 126 95 208.5t235 82.5q141 0 235 -82t94 -209q0 -129 -92 -211t-237 -82q-147 0 -238.5 81.5t-91.5 211.5zM547 1501q0 -55 35 -93t90 -38q53 0 89 38t36 93q0 53 -36.5 90t-88.5 37q-51 0 -88 -37.5t-37 -89.5zM465 1051v-500q0 -156 47 -221.5t160 -65.5 t160 65.5t47 221.5v500h362v-588q0 -262 -136 -378t-433 -116t-433.5 116t-136.5 378v588h363z" />
<glyph unicode="&#x170;" horiz-adv-x="1523" d="M338 1999l354 401l168 -213l-407 -346zM770 1999l354 401l168 -213l-407 -346zM1036 1690v-977q0 -140 -30 -220.5t-88 -112.5t-156 -32t-156 32t-88.5 112.5t-30.5 220.5v977h-385v-1090q0 -312 168 -471.5t492 -159.5t491.5 159.5t167.5 471.5v1090h-385z" />
<glyph unicode="&#x171;" horiz-adv-x="1343" d="M248 1360l354 401l168 -213l-408 -346zM680 1360l354 401l168 -213l-407 -346zM102 1051v-588q0 -262 136.5 -378t433.5 -116t433 116t136 378v588h-362v-500q0 -156 -47 -221.5t-160 -65.5t-160 65.5t-47 221.5v500h-363z" />
<glyph unicode="&#x172;" horiz-adv-x="1523" d="M543 -324q0 117 141 297q-287 19 -434.5 176.5t-147.5 450.5v1090h385v-977q0 -140 30.5 -220.5t88.5 -112.5t156 -32t156 32t88 112.5t30 220.5v977h385v-1090q0 -289 -144 -447t-423 -180q-37 -50 -68.5 -120t-31.5 -140q0 -36 23 -58t52 -22q28 0 54.5 15.5t38.5 31.5 l12 15l147 -111q-4 -6 -11 -16t-33 -35t-56 -44.5t-78.5 -35.5t-101.5 -16q-43 0 -85.5 13t-82.5 39.5t-65 75t-25 111.5z" />
<glyph unicode="&#x173;" horiz-adv-x="1343" d="M453 -324q0 125 141 295q-256 14 -374 130.5t-118 361.5v588h363v-500q0 -156 47 -221.5t160 -65.5t160 65.5t47 221.5v500h362v-588q0 -241 -115 -358t-364 -134q-98 -137 -98 -258q0 -36 23 -58t52 -22q28 0 54.5 15.5t38.5 31.5l12 15l147 -111q-4 -6 -11 -16t-33 -35 t-56 -44.5t-78.5 -35.5t-101.5 -16q-43 0 -85.5 13t-82.5 39.5t-65 75t-25 111.5z" />
<glyph unicode="&#x178;" horiz-adv-x="1507" d="M510 2259q78 0 133 -55t55 -133t-55 -133.5t-133 -55.5t-133 55.5t-55 133.5t55 133t133 55zM995 2259q78 0 133.5 -55t55.5 -133t-55.5 -133.5t-133.5 -55.5t-133 55.5t-55 133.5t55 133t133 55zM-61 1690h462l353 -541l352 541h463l-623 -932v-758h-385v758z" />
<glyph unicode="&#x179;" horiz-adv-x="1574" d="M485 1999l416 360l186 -235l-487 -283zM1542 1690l-837 -1352h782v-338h-1454l835 1352h-716v338h1390z" />
<glyph unicode="&#x17a;" horiz-adv-x="1148" d="M389 1360l416 360l186 -235l-487 -283zM1139 1051l-521 -775h480v-276h-1088l520 774h-434v277h1043z" />
<glyph unicode="&#x17b;" horiz-adv-x="1574" d="M786 2259q78 0 133.5 -55t55.5 -133t-55.5 -133.5t-133.5 -55.5t-133 55.5t-55 133.5t55 133t133 55zM1542 1690l-837 -1352h782v-338h-1454l835 1352h-716v338h1390z" />
<glyph unicode="&#x17c;" horiz-adv-x="1148" d="M573 1620q78 0 133.5 -55t55.5 -133t-55.5 -133.5t-133.5 -55.5t-133 55.5t-55 133.5t55 133t133 55zM1139 1051l-521 -775h480v-276h-1088l520 774h-434v277h1043z" />
<glyph unicode="&#x17d;" horiz-adv-x="1574" d="M473 2359l313 -229l314 229l139 -186l-453 -332l-452 332zM1542 1690l-837 -1352h782v-338h-1454l835 1352h-716v338h1390z" />
<glyph unicode="&#x17e;" horiz-adv-x="1148" d="M262 1720l313 -229l314 229l139 -186l-453 -332l-452 332zM1139 1051l-521 -775h480v-276h-1088l520 774h-434v277h1043z" />
<glyph unicode="&#x218;" horiz-adv-x="1376" d="M745 1720q86 0 171.5 -16.5t146.5 -40t109.5 -46.5t73.5 -39l24 -17l-156 -308q-7 5 -19.5 13t-50.5 28t-76.5 35.5t-92.5 28t-103 12.5q-97 0 -149 -40.5t-52 -110.5q0 -17 6.5 -33.5t22.5 -33t31 -30t45 -30.5t51 -28.5t61.5 -29.5t64 -28.5t71.5 -30.5 q75 -32 142 -75.5t125.5 -101t93 -131.5t34.5 -153q0 -117 -35 -211t-94 -155.5t-141.5 -102.5t-173 -58.5t-193.5 -17.5q-111 0 -217 23t-178.5 56t-129 66t-83.5 56l-27 23l193 323q9 -8 25.5 -20.5t65.5 -45.5t96 -58t110 -45.5t116 -20.5q33 0 58.5 2t63 11.5t62 26 t42.5 49t18 77.5q0 30 -15.5 57t-37 47t-64 44.5t-75.5 40t-92.5 43.5t-96.5 46q-153 75 -237 188.5t-84 245.5q0 151 81.5 271.5t206 182.5t262.5 62zM686 -82q-74 0 -127 -54t-53 -130q0 -60 38.5 -105t98.5 -59q-11 -59 -41.5 -115.5t-55.5 -82.5l-24 -27l82 -64 q266 219 266 453q0 76 -54 130t-130 54z" />
<glyph unicode="&#x219;" horiz-adv-x="1007" d="M580 1081q90 0 178 -20.5t131 -40.5l43 -21l-119 -237q-14 7 -37 18t-85 29t-111 18q-62 0 -87.5 -13.5t-25.5 -49.5q0 -9 2.5 -17t8.5 -14.5t11.5 -12t16.5 -11.5t19 -9.5t23.5 -9t25 -8.5l28.5 -9t29 -9q49 -15 87.5 -30.5t84 -44t76 -62.5t51 -85.5t20.5 -113.5 q0 -359 -497 -359q-71 0 -139 14.5t-114.5 35.5t-82.5 42t-53 35l-17 15l148 247q6 -5 16 -13t41 -28.5t61 -36.5t69.5 -29t72.5 -13q32 0 53 3.5t40 21t19 50.5q0 34 -28 54t-97.5 45.5t-107.5 44.5q-46 24 -79 46.5t-66 56.5t-50.5 80t-17.5 103q0 159 124.5 248.5 t334.5 89.5zM502 -82q-74 0 -127 -54t-53 -130q0 -60 38.5 -105t98.5 -59q-11 -59 -41.5 -115.5t-55.5 -82.5l-24 -27l82 -64q266 219 266 453q0 76 -54 130t-130 54z" />
<glyph unicode="&#x21a;" horiz-adv-x="1220" d="M16 1352v338h1188v-338h-401v-1352h-385v1352h-402zM608 -82q-74 0 -127 -54t-53 -130q0 -60 38.5 -105t98.5 -59q-11 -59 -41.5 -115.5t-55.5 -82.5l-24 -27l82 -64q267 219 267 453q0 76 -54 130t-131 54z" />
<glyph unicode="&#x21b;" horiz-adv-x="808" d="M184 1051v391h363v-391h221v-277h-221v-334q0 -145 82 -145q21 0 43.5 8.5t34.5 16.5l12 8l90 -293q-13 -7 -36.5 -18t-93 -29.5t-136.5 -18.5q-83 0 -148 24.5t-104 63t-63.5 93t-34 108t-9.5 113.5v403h-151v277h151zM401 -82q77 0 131 -54t54 -130q0 -234 -267 -453 l-81 64q4 4 10.5 11t24 30t32.5 47.5t30.5 62t22.5 74.5q-60 14 -98.5 59t-38.5 105q0 76 53 130t127 54z" />
<glyph unicode="&#x2c6;" horiz-adv-x="1191" d="M143 1389l453 331l453 -331l-140 -187l-313 230l-313 -230z" />
<glyph unicode="&#x2c7;" horiz-adv-x="1191" d="M283 1720l313 -229l313 229l140 -186l-453 -332l-453 332z" />
<glyph unicode="&#x2d8;" horiz-adv-x="1232" d="M831 1720l259 -63q-19 -166 -148.5 -268.5t-325.5 -102.5t-325 102.5t-148 268.5l258 63q1 -9 3.5 -23t17 -50.5t35.5 -64t63 -50.5t96 -23q39 0 72.5 11.5t55 30t38 41t25.5 45.5t15 41.5t8 29.5z" />
<glyph unicode="&#x2d9;" horiz-adv-x="663" d="M332 1620q78 0 133 -55t55 -133t-55 -133.5t-133 -55.5t-133.5 55.5t-55.5 133.5t55.5 133t133.5 55z" />
<glyph unicode="&#x2da;" horiz-adv-x="946" d="M143 1501q0 126 95 208.5t235 82.5q141 0 235.5 -82.5t94.5 -208.5q0 -129 -92.5 -211t-237.5 -82q-147 0 -238.5 81.5t-91.5 211.5zM348 1501q0 -55 35 -93t90 -38q53 0 89 38t36 93q0 53 -36.5 90t-88.5 37q-51 0 -88 -37.5t-37 -89.5z" />
<glyph unicode="&#x2db;" horiz-adv-x="825" d="M143 -324q0 45 22 100.5t53.5 102.5t62.5 87.5t53 63.5l22 23l119 -53q-5 -6 -13 -16.5t-29 -43t-37 -65t-29 -77.5t-13 -85q0 -36 23.5 -58t52.5 -22q28 0 54 15.5t38 31.5l13 15l147 -111q-4 -6 -11.5 -16t-33.5 -35t-56 -44.5t-78.5 -35.5t-101.5 -16q-43 0 -85.5 13 t-82.5 39.5t-65 75t-25 111.5z" />
<glyph unicode="&#x2dc;" horiz-adv-x="1232" d="M598 1315q-82 39 -156 39q-29 0 -52 -23.5t-32 -46.5l-8 -24h-207q1 7 3.5 20t12.5 49.5t23 69.5t36 74t50 70t67.5 49t86.5 20q36 0 89 -14t89 -28l35 -14q82 -38 156 -38q29 0 52 23.5t31 46.5l9 24h207q-1 -7 -3.5 -20t-12.5 -49.5t-23 -69.5t-36 -74t-50 -70 t-67.5 -49t-86.5 -20q-36 0 -89 14t-88 28z" />
<glyph unicode="&#x2dd;" horiz-adv-x="1241" d="M197 1360l354 401l168 -213l-408 -346zM629 1360l354 401l168 -213l-408 -346z" />
<glyph unicode="&#x2000;" horiz-adv-x="1215" />
<glyph unicode="&#x2001;" horiz-adv-x="2431" />
<glyph unicode="&#x2002;" horiz-adv-x="1215" />
<glyph unicode="&#x2003;" horiz-adv-x="2431" />
<glyph unicode="&#x2004;" horiz-adv-x="810" />
<glyph unicode="&#x2005;" horiz-adv-x="607" />
<glyph unicode="&#x2006;" horiz-adv-x="405" />
<glyph unicode="&#x2007;" horiz-adv-x="405" />
<glyph unicode="&#x2008;" horiz-adv-x="303" />
<glyph unicode="&#x2009;" horiz-adv-x="486" />
<glyph unicode="&#x200a;" horiz-adv-x="135" />
<glyph unicode="&#x2010;" horiz-adv-x="905" d="M123 750h659v-314h-659v314z" />
<glyph unicode="&#x2011;" horiz-adv-x="905" d="M123 750h659v-314h-659v314z" />
<glyph unicode="&#x2012;" horiz-adv-x="905" d="M123 750h659v-314h-659v314z" />
<glyph unicode="&#x2013;" horiz-adv-x="1105" d="M0 750h1106v-314h-1106v314z" />
<glyph unicode="&#x2014;" horiz-adv-x="2211" d="M0 750h2212v-314h-2212v314z" />
<glyph unicode="&#x2018;" horiz-adv-x="595" d="M262 975q-89 0 -152 63t-63 152q0 271 311 530l97 -75q-5 -4 -12.5 -12.5t-28.5 -35t-39 -55.5t-36 -72.5t-26 -87.5q70 -18 115 -70t45 -122q0 -89 -61.5 -152t-149.5 -63z" />
<glyph unicode="&#x2019;" horiz-adv-x="595" d="M334 1720q89 0 152 -63t63 -152q0 -271 -311 -530l-97 76q5 4 12.5 12t28.5 35t39 55.5t36 72t26 87.5q-70 18 -115 70t-45 122q0 89 61.5 152t149.5 63z" />
<glyph unicode="&#x201a;" horiz-adv-x="595" d="M334 438q89 0 152 -63t63 -152q0 -271 -311 -530l-97 76q5 4 12.5 12t28.5 35t39 55.5t36 72t26 87.5q-70 18 -115 70t-45 122q0 89 61.5 152t149.5 63z" />
<glyph unicode="&#x201c;" horiz-adv-x="1116" d="M262 975q-89 0 -152 63t-63 152q0 271 311 530l97 -75q-5 -4 -12.5 -12.5t-28.5 -35t-39 -55.5t-36 -72.5t-26 -87.5q70 -18 115 -70t45 -122q0 -89 -61.5 -152t-149.5 -63zM780 975q-89 0 -150 62.5t-61 152.5q0 275 310 530l96 -75q-5 -4 -12.5 -12.5t-29 -35 t-39 -55.5t-36 -72.5t-27.5 -87.5q71 -18 116.5 -70t45.5 -122q0 -89 -62.5 -152t-150.5 -63z" />
<glyph unicode="&#x201d;" horiz-adv-x="1116" d="M336 1720q89 0 150 -62.5t61 -152.5q0 -276 -309 -530l-97 76q5 4 12.5 12t29 35t39 55.5t36 72t27.5 87.5q-71 18 -116.5 70t-45.5 122q0 89 62.5 152t150.5 63zM854 1720q89 0 152 -63t63 -152q0 -271 -311 -530l-96 76q5 4 12.5 12t28.5 35t38.5 55.5t35.5 72t26 87.5 q-70 18 -115 70t-45 122q0 89 61.5 152t149.5 63z" />
<glyph unicode="&#x201e;" horiz-adv-x="1116" d="M336 438q89 0 150 -62.5t61 -152.5q0 -276 -309 -530l-97 76q5 4 12.5 12t29 35t39 55.5t36 72t27.5 87.5q-71 18 -116.5 70t-45.5 122q0 89 62.5 152t150.5 63zM854 438q89 0 152 -63t63 -152q0 -271 -311 -530l-96 76q5 4 12.5 12t28.5 35t38.5 55.5t35.5 72t26 87.5 q-70 18 -115 70t-45 122q0 89 61.5 152t149.5 63z" />
<glyph unicode="&#x2020;" horiz-adv-x="1110" d="M143 1331h254v430h314v-430h256v-278h-256v-1053h-314v1053h-254v278z" />
<glyph unicode="&#x2021;" horiz-adv-x="1110" d="M143 750h254v262h-254v278h254v471h314v-471h256v-278h-256v-262h256v-279h-256v-471h-314v471h-254v279z" />
<glyph unicode="&#x2022;" horiz-adv-x="1466" d="M731 1133q167 0 285.5 -118.5t118.5 -285.5q0 -166 -118.5 -282.5t-285.5 -116.5q-166 0 -282.5 116.5t-116.5 282.5q0 167 116.5 285.5t282.5 118.5z" />
<glyph unicode="&#x2026;" horiz-adv-x="2144" d="M356 438q98 0 167 -68.5t69 -166.5q0 -97 -69 -165.5t-167 -68.5q-97 0 -165 68.5t-68 165.5q0 98 68 166.5t165 68.5zM1071 438q98 0 167 -68.5t69 -166.5q0 -97 -69 -165.5t-167 -68.5q-97 0 -165 68.5t-68 165.5q0 98 68 166.5t165 68.5zM1786 438q98 0 166.5 -68.5 t68.5 -166.5q0 -97 -68.5 -165.5t-166.5 -68.5q-97 0 -165.5 68.5t-68.5 165.5q0 98 68.5 166.5t165.5 68.5z" />
<glyph unicode="&#x202f;" horiz-adv-x="486" />
<glyph unicode="&#x2030;" horiz-adv-x="3008" d="M47 1317q0 177 130.5 290t326.5 113q190 0 319 -113.5t129 -289.5q0 -175 -126 -289.5t-322 -114.5q-205 0 -331 113.5t-126 290.5zM1620 1690l-983 -1690h-242l983 1690h242zM311 1317q0 -83 53 -135t136 -52q79 0 131.5 52.5t52.5 134.5t-53.5 136t-130.5 54 q-79 0 -134 -54t-55 -136zM1057 373q0 177 125.5 290t330.5 113q196 0 322.5 -114t126.5 -289q0 -176 -129.5 -290t-319.5 -114q-195 0 -325.5 113.5t-130.5 290.5zM2056 373q0 177 126 290t331 113q196 0 322 -114t126 -289q0 -176 -129 -290t-319 -114q-195 0 -326 113.5 t-131 290.5zM1321 373q0 -82 54.5 -136.5t133.5 -54.5q77 0 131 54.5t54 136.5t-53 134t-132 52q-83 0 -135.5 -51.5t-52.5 -134.5zM2320 373q0 -82 55 -136.5t134 -54.5q77 0 130.5 54.5t53.5 136.5t-52.5 134t-131.5 52q-84 0 -136.5 -51.5t-52.5 -134.5z" />
<glyph unicode="&#x2039;" horiz-adv-x="768" d="M467 57l-399 512l399 512l190 -149l-282 -363l282 -362z" />
<glyph unicode="&#x203a;" horiz-adv-x="768" d="M111 207l282 362l-282 363l190 149l399 -512l-399 -512z" />
<glyph unicode="&#x2044;" horiz-adv-x="540" d="M883 1690l-983 -1690h-242l983 1690h242z" />
<glyph unicode="&#x205f;" horiz-adv-x="607" />
<glyph unicode="&#x20ac;" horiz-adv-x="1701" d="M1323 905h-711q-4 -20 -4 -57q0 -20 4 -66h711v-221h-621q71 -94 186.5 -149.5t274.5 -55.5q55 0 109.5 11t93 26t69 30.5t45.5 26.5l15 11l168 -336q-8 -6 -22.5 -16.5t-67 -37.5t-111.5 -47.5t-155 -37.5t-199 -17q-284 0 -524.5 166t-339.5 426h-197v221h148 q-2 18 -2 60q0 40 2 63h-148v221h197q64 171 195 306t306 211.5t363 76.5q103 0 198 -16t157 -39t109.5 -45.5t69.5 -38.5l21 -16l-168 -336q-6 4 -16 11t-44 25t-70 32t-91.5 25t-110.5 11q-160 0 -276 -56t-187 -151h623v-221z" />
<glyph unicode="&#x2122;" horiz-adv-x="1052" d="M410 1690v-107h-125v-422h-125v422h-125v107h375zM893 1161l-25 314h-2l-108 -310h-72l-108 310h-3l-26 -314h-121l47 529h129l117 -304l117 304h129l49 -529h-123z" />
<glyph unicode="&#x2260;" horiz-adv-x="1296" d="M313 143h-241l176 303h-125v314h307l102 178h-409v313h592l172 295h241l-172 -295h218v-313h-400l-102 -178h502v-314h-685z" />
<glyph unicode="&#x2264;" horiz-adv-x="1366" d="M123 1235l1120 455v-291l-733 -287l733 -283v-290l-1120 454v242zM123 313h1120v-313h-1120v313z" />
<glyph unicode="&#x2265;" horiz-adv-x="1366" d="M123 829l733 283l-733 287v291l1120 -455v-242l-1120 -454v290zM123 313h1120v-313h-1120v313z" />
<glyph unicode="&#x25fc;" horiz-adv-x="1054" d="M0 1055h1055v-1055h-1055v1055z" />
<glyph unicode="&#xfb01;" horiz-adv-x="1376" d="M891 0v774h-344v-774h-363v774h-151v277h151v223q2 238 112.5 378t319.5 140q79 0 157 -17.5t133 -42.5t98 -50t64 -42l22 -18l-127 -256q-15 12 -39.5 30t-88.5 47.5t-112 29.5q-103 0 -139.5 -47.5t-36.5 -161.5v-213h706v-1051h-362z" />
<glyph unicode="&#xfb02;" horiz-adv-x="1376" d="M184 1051v223q2 235 110.5 376.5t301.5 141.5q144 0 256 -66l-84 -284q-50 28 -109 28q-66 0 -89 -46t-23 -160v-213h241v-277h-241v-774h-363v774h-151v277h151zM891 0v1761h362v-1761h-362z" />
</font>
</defs>
</svg>
